<svg width="377" height="289" fill="none" xmlns="http://www.w3.org/2000/svg"><path d="M376.379 147.862c-.935 1.598-1.492 3.431-1.821 5.199-.6 3.223-.443 6.23-.443 7.201 0 1.503-11.297-1.127-13.744 0-1.088.5-2.923 1.076-4.707 1.893-57.669 4.409-115.681 8.247-160.919-8.562a133.293 133.293 0 00-35.29-7.875l-152.31-12.76a54.837 54.837 0 001.618-3.132c1.41-2.942 2.534-5.811 2.534-6.199 0-.845 3.39 3.1 5.366 2.537 1.978-.564.283-4.228 0-7.046-.283-2.818-5.17-10.991.946-15.217 6.115-4.227 17.695-20.008 22.495-20.008 4.801 0 7.344-8.454 6.213-10.71-1.13-2.253-2.259-15.216-5.083-16.908-2.825-1.69-1.13-8.735-.847-10.426.283-1.69 3.954.564 7.908 0 3.954-.563 4.518-8.454 9.32-8.171 0 0 12.85 1.253 14.968-.008 2.118-1.262 15.393 1.839 19.205 4.093 3.813 2.254 16.804 4.931 18.217 4.227 1.412-.704 2.682 6.34 4.377 6.059 1.695-.282 5.554-2.067 6.119.938.566 3.007 10.356-.938 10.92-2.065.566-1.128 4.896 3.945 6.402 2.816 1.506-1.127 8.285 1.88 10.544-1.69 2.259-3.569 4.143 11.084 7.72 8.267 3.576-2.818 10.92-6.763 13.932-2.067 3.013 4.696 8.661 7.139 8.474 2.818-.189-4.321 4.142-23.706 7.719-23.688 3.577.017 19.016 3.586 22.218 1.144 3.199-2.443 1.882-10.71 7.719-9.394 5.836 1.315 9.603 2.349 14.687-.14 5.083-2.49 7.531-6.811 10.731-1.363 3.201 5.448 7.6 15.092 10.355 17.095 2.431 1.767-5.083 2.256-3.765 5.636 1.318 3.381 6.59 13.528 8.661 12.963 2.07-.564 12.049-3.757 12.426.565.377 4.321 5.836 7.702 5.272 13.525-.565 5.824 5.648 13.528 7.908 10.71 2.259-2.819 11.108 4.883 16.569 2.253 5.46-2.63 15.814-10.142 19.205-6.198 3.388 3.943 9.79 16.531 11.296 14.276 1.506-2.254 9.226-6.763 15.063-3.194 5.836 3.57 18.639 10.707 22.029 8.642 3.388-2.067 7.719-2.819 7.719-1.503 0 1.314 2.824 6.762 1.129 11.083-1.693 4.321-9.037 8.83-6.965 10.897 2.072 2.066 9.743 2.066 7.508 4.133-2.236 2.068-10.52 7.139-6.943 9.582 3.576 2.445 9.986 5.263 7.345 9.772z" fill="#5F8AFF"/><path d="M374.115 160.261c0 1.503-11.297-1.127-13.744 0-1.089.5-2.923 1.076-4.707 1.893-2.226 1.018-4.373 2.409-4.896 4.494-.941 3.757-9.414 2.443-9.226 8.266.189 5.823 0 2.442.942 6.575.941 4.134 4.519 5.824-1.695 6.388-6.213.563-13.179-5.261-13.745 1.503-.564 6.763-1.693 7.515-5.46 6.763-3.765-.751-7.719.939-7.719 4.697 0 3.757-3.954-3.758-7.908 1.127s-13.557 3.381-17.699 7.89c-4.142 4.508-6.401 3.195-9.603 6.951-3.201 3.758-4.894 1.691-6.024 4.509-1.13 2.819-7.531 5.635-10.168 3.381-2.635-2.254-6.777-5.823-8.472-2.067-1.695 3.758-8.096-4.133-7.154-.187.941 3.945 7.531 8.453 9.414 7.702 1.882-.751 4.896-5.283 8.474.083 3.577 5.365 11.108 5.365 12.615 10.061 1.506 4.698 13.932 10.146 17.321 6.576 3.389-3.569 12.049-5.448 15.627-3.945 3.578 1.503-.188 6.95.377 11.084.564 4.133-20.523-.939-23.347 3.006-2.825 3.945-7.719 10.145-14.309 10.145-6.591 0-13.557 15.029-18.264 14.841-4.707-.188-14.498-5.824-13.18-8.079 1.318-2.254 7.154-13.527 1.695-16.344-5.461-2.817-9.038-7.327-13.933-6.387-4.895.938-13.557 1.69-9.226-2.256 4.331-3.943 11.862-8.829 17.51-10.707 5.649-1.878 9.979-5.072 8.849-7.515-1.129-2.442-3.954-6.763-6.025-4.696-2.07 2.066-.753-2.254-5.647-2.254-4.896 0-11.674 4.696-14.499 4.321-2.823-.376-9.601-7.514-12.049-6.576-2.448.94 3.766-3.945 4.707-6.575.941-2.63-3.013-5.072-8.472-3.381-5.461 1.69-4.52-2.067-9.227-.376-4.706 1.69-11.296-3.194-12.238 1.503-.94 4.696-3.011 10.896-5.647 12.399-2.637 1.502-4.143 4.321-4.52 7.138-.376 2.819-2.259 3.194-6.213 4.51-3.954 1.314-5.272-1.128-5.272 3.568 0 4.698-3.388 1.504-3.765 0-.377-1.503-4.707 2.443-.753 7.891 3.954 5.449 3.577 6.764.941 8.267-2.636 1.503-13.369-7.515-16.003-4.884-2.636 2.63-6.213 5.26-8.474 3.569-2.259-1.691-9.038-4.134-7.906-7.703 1.129-3.569 6.401-4.696 9.414-9.769 3.012-5.072 8.095-8.453 7.154-15.968-.941-7.514 2.824-11.836 5.837-7.703 3.013 4.134 13.556 2.819 16.38 3.946 2.825 1.127-1.695-12.587-5.083-15.78-3.389-3.194-2.825-11.46-6.402-14.091-3.577-2.63-6.59-13.525-5.836-17.659.753-4.133-2.825-5.823-8.095-7.138-5.273-1.315-20.995-7.797-21.841-11.178-.847-3.382-15.816-2.25-17.793 1.41-1.977 3.663-8.755 3.943-11.862 5.634-3.107 1.692-4.237 8.173-11.862 7.046-7.625-1.127-10.732 4.508-15.25 5.355-4.52.845-7.344-9.864-12.709-8.455-5.366 1.409-24.289-9.582-27.96-6.2-3.674 3.381-17.512-14.372-19.49-13.527 0 0 1.978-7.326 3.954-6.763.741.211 1.96-1.44 3.191-3.631.55-.975 1.102-2.06 1.617-3.132 55.85-5.249 106.573-14.837 161.342 12.291 50.357 18.927 121.192 9.42 204.454 10.944-.6 3.222-.443 6.229-.443 7.199z" fill="#FFB45A"/><path d="M159.401 62.098c.118 15.425-8.333 14.267-16.105 35.136-7.175 19.269 4.558 39.243 6.77 43.839 7.966 16.547 35.68-24.936 51.809-24.936 15.758 0 49.243 44.749 57.301 28.835 2.543-5.024 11.148-27.351 6.439-45.837-3.939-15.467-19.858-21.903-18.754-37.772C249.105 29.103 233.619.395 203.366.395c-29.546 0-44.212 29.36-43.965 61.703z" fill="#4D4037"/><path d="M260.85 143.465c2.544-4.791 13.009-25.465 8.3-43.094-3.941-14.75-21.97-21.38-20.866-36.513 1.825-24.999-12.681-46.209-33.802-53.19m-15.753-.819c-21.491 2.068-40.56 20.259-41.67 57.018-.36 11.928-9.941 13.83-17.113 30.614-7.777 18.2 5.427 41.585 7.64 45.985" stroke="#4D4037" stroke-width="5" stroke-miterlimit="10" stroke-linecap="round" stroke-linejoin="round"/><path d="M101.572 196.868c2.055-18.393 10.172-35.677 23.069-49.383 40.345-42.878 78.3-42.606 78.3-42.606 14.097 1.063 39.918 1.418 78.192 47.867 38.274 46.45 17.014 80.842 5.606 88.644-11.409 7.8-39.988 5.318-39.988 5.318l16.227 116.737c-20.718 0-39.855-7.026-65.847 0-19.123 5.17-40.566 0-62.299 0l16.256-120.76s-20.938 6.828-38.695-4.31c-10.706-6.716-12.56-25.95-10.821-41.507z" fill="#F5EADD"/><path d="M202.889 128.393h.105c9.067 0 16.417-7.322 16.417-16.353V83.12h-32.938v28.92c-.001 9.031 7.349 16.353 16.416 16.353z" fill="#FDBF9E"/><path d="M219.41 92.68c-4.875 4.008-10.491 6.396-16.469 6.396-5.979 0-11.595-2.387-16.47-6.396v-9.56h32.939v9.56z" fill="#F7AD89"/><path d="M144.727 165.497l2.052-4.995 4.675 2.88c-4.184-13.205-8.421-39.429 2.232-53.963 3.952-5.39 7.214-11.566 9.696-18.355 1.972-5.394 3.46-11.187 4.421-17.218 1.638-10.273 1.189-17.67 1.169-17.98l-7.04.45 3.52-.225-3.52.221c.005.07.416 7.071-1.125 16.616-1.404 8.695-4.767 21.366-12.818 32.348-3.42 4.667-5.787 10.446-7.034 17.177-1.003 5.415-1.292 11.494-.858 18.068.821 12.455 4.001 22.99 4.63 24.976z" fill="#117FE3"/><path d="M169.083 48.898c0 23.313 15.158 46.665 33.858 46.665 18.7 0 33.859-23.35 33.859-46.665 0-23.314-15.199-40.512-33.899-40.512-18.7 0-33.818 17.199-33.818 40.512z" fill="#FDBF9E"/><path d="M261.628 165.497c.629-1.985 3.809-12.521 4.63-24.976.433-6.574.144-12.653-.859-18.068-1.246-6.731-3.612-12.51-7.033-17.177-8.057-10.992-11.489-23.39-12.948-31.857-1.601-9.284-1.252-16.023-1.248-16.09l-7.042-.398c-.018.3-.404 7.45 1.303 17.472 1.001 5.877 2.52 11.548 4.514 16.853 2.507 6.67 5.779 12.781 9.725 18.163 10.653 14.534 6.415 40.758 2.232 53.963l4.416-2.142 2.31 4.257zm-83.284-12.474c.148.282.309.563.483.839.565.9 1.262 1.764 2.106 2.578l21.057 20.292 13.484-13.883 6.858-7.06c.309-.318.597-.642.864-.971 8.649-10.611-3.901-26.169-16.375-19.093-2.197 1.245-4.095 3.159-5.432 5.763-1.765-3.371-4.607-5.516-7.827-6.503-11.402-3.488-20.106 8.723-15.218 18.038z" fill="#117FE3"/><path d="M178.828 153.862c.565.9 1.262 1.764 2.106 2.578l21.057 20.292 13.485-13.883 6.857-7.06c.309-.318.597-.642.864-.971-4.547-4.179-14.868-5.201-22.184-.459-8.1 5.249-17.658-2.027-22.185-.497z" fill="#FFB45A"/><path d="M190.555 176.416l.191-13.611c.003-.246.054-.489.15-.719l6.289-14.966c.493-1.357 2.6-1.018 2.6.419v22.959c0 13.16-.349 22.357-5.709 23.828l-20.733 13.198-9.715-13.198c9.729-4.566 18.365-6.835 25.121-13.635a6.174 6.174 0 001.806-4.275z" fill="#FDBF9E"/><path d="M208.834 176.416l-.191-13.611a1.924 1.924 0 00-.15-.719l-6.289-14.966c-.493-1.357-2.6-1.018-2.6.419v22.959c0 13.16.349 22.357 5.709 23.828l20.733 13.198 9.715-13.198c-9.729-4.566-18.365-6.835-25.121-13.635a6.17 6.17 0 01-1.806-4.275z" fill="#FDBF9E"/><path d="M264.665 198.048s-26.682-14.195-33.399-10.489l-15.35 22.036s7.027 27.81 22.986 32.259m-103.316-46.513s21.155-12.547 32.61-7.781l15.351 22.036s-3.835 24.428-26.15 31.49" fill="#F5EADD"/><path d="M221.309 13.186c14.483 17.521-5.534 26.426-4.499 11.988.253-3.883 1.817-8.58 4.499-11.988z" fill="#697F4E"/><path d="M221.318 14.173c.123.727.24 1.456.333 2.186.1.73.187 1.46.262 2.191.149 1.463.251 2.929.268 4.396.014.733-.004 1.466-.041 2.198a23.23 23.23 0 01-.213 2.186 15.248 15.248 0 01-.459 2.145 10.398 10.398 0 01-.812 2.044c.414-.613.721-1.296.977-1.991.249-.7.436-1.423.565-2.154.038-.181.065-.365.093-.55.027-.183.057-.367.076-.55l.061-.555.044-.555c.049-.74.069-1.482.06-2.222a39.115 39.115 0 00-.104-2.22 39.637 39.637 0 00-.244-2.205 35.239 35.239 0 00-.866-4.344z" fill="#415814"/><path d="M169.166 66.2c-4.218 0-7.637-3.652-7.637-8.157 0-4.504 3.419-8.156 7.637-8.156s7.637 3.652 7.637 8.157c0 4.504-3.419 8.156-7.637 8.156z" fill="#FDBF9E"/><path fill-rule="evenodd" clip-rule="evenodd" d="M188.819 60.257c.186.018.28-.285.4-.531.119-.247.323-.519.551-.728.228-.209 1.043-.667 1.043-.667l-1.089.08c.077-.192-.004-.386-.181-.434-.176-.048-.381.068-.458.26l-.298.456-.22 1.177c-.047.197.065.37.252.387zm-2.012-.231a.443.443 0 00.462-.23l.452-.78.482-.653c.129-.173.109-.362-.045-.422-.153-.059-.381.034-.51.208l-.477.297-.297.82c-.102.182-.238.553-.067.76zm-1.84-.439c.137.077.358-.12.443-.256l.425-.49.508-.592c.105-.122-.139-.08-.26-.178a.3.3 0 00-.411.044l-.427.494-.371.593a.272.272 0 00.093.385zm-1.46-1.029c.107.114.234.025.355-.079l.557-.327.515-.317a.274.274 0 00.093-.387.299.299 0 00-.404-.081l-.556.341-.532.455a.272.272 0 00-.028.395z" fill="#1D1919"/><path d="M194.252 56.09c-.969.413-1.889.813-2.83 1.08a9.784 9.784 0 01-2.826.412c-.119.008-.236-.006-.354-.012l-.355-.021c-.236-.019-.471-.062-.709-.086l-.708-.14-.351-.092c-.118-.031-.239-.052-.355-.092-.944-.27-3.437-1.048-6.437-1.048 2 .303 5.137 1.43 6.101 1.905.242.116.493.214.744.316.256.09.518.162.78.24.134.029.268.052.404.078.135.022.269.056.405.069l.412.034c.137.01.274.027.412.02a7.176 7.176 0 003.172-.726 7.645 7.645 0 002.495-1.936z" fill="#1D1919"/><path d="M214 79c-1.942 0-6.902.726-8 .395-1.1-.326-2.136.062-3.287.065-1.151.005-2.116-.39-3.213-.065-1.095.332-4.311-.723-7-.395 2.5 1.263 5.977 1.869 7.05 1.822a67.155 67.155 0 013.163-.1 58.564 58.564 0 013.159.078l.804.04c.136.009.27.02.406.027.136.007.274.009.409.02.273.02.541.044.831.044.291 0 3.678-.668 5.678-1.931zm-16.954 3.396c.954.999 1.591 1.341 2.454 1.803.5.267 2.32.455 3.299.45.978-.007 2.201-.254 2.701-.45.902-.354 1.5-.804 2.546-1.802-.985-.005-1.905.13-2.816.2-.908.083-1.799.143-2.689.15a28.1 28.1 0 01-2.685-.117l-.684-.061c-.115-.013-.228-.03-.344-.04-.116-.01-.233-.013-.348-.031a12.37 12.37 0 00-.707-.065 4.924 4.924 0 00-.727-.037z" fill="#F69970"/><path fill-rule="evenodd" clip-rule="evenodd" d="M217.802 60.084c-.178.057-.335-.217-.505-.432a2.563 2.563 0 00-.696-.591c-.268-.155-1.162-.426-1.162-.426l1.08-.157c-.117-.17-.08-.378.082-.463.162-.086.388-.017.504.154l.39.381.469 1.102c.089.181.017.375-.162.432zm2.093-.412a.442.442 0 01-.5-.125l-.611-.664-.612-.532c-.163-.142-.184-.331-.047-.422.137-.091.38-.05.543.092l.53.187.467.737c.139.154.353.488.23.727zm1.688-.968c-.117.104-.376-.04-.488-.154l-.52-.386-.625-.47c-.129-.096.119-.108.216-.229a.3.3 0 01.41-.046l.523.39.491.499a.272.272 0 01-.007.396zm1.63-1.14c-.08.135-.223.075-.364 0l-.614-.199-.572-.198a.275.275 0 01-.174-.358.3.3 0 01.377-.167l.616.214.619.328a.272.272 0 01.112.38z" fill="#1D1919"/><path d="M225.349 55.894c-1.5-.5-4.899 1.01-5.84 1.276a9.787 9.787 0 01-2.826.411c-.119.009-.236-.005-.354-.011l-.355-.021c-.236-.019-.472-.062-.709-.086l-.708-.14-.351-.092c-.118-.031-.239-.052-.355-.092-.944-.27-1.874-.66-2.851-1.048a8.047 8.047 0 002.514 1.905c.243.116.494.214.745.316.256.09.518.162.78.24.134.028.268.052.404.078.135.022.269.056.405.069l.412.034c.137.009.274.027.412.02a7.178 7.178 0 003.172-.727c.968-.475 3.505-1.632 5.505-2.132z" fill="#1D1919"/><path d="M198.583 71.679c0 .638 1.864 1.157 4.163 1.157 2.3 0 4.163-.518 4.163-1.157s-1.863 0-4.163 0c-2.299 0-4.163-.64-4.163 0z" fill="#F7AD89"/><path d="M218.27 51.24c-3.255 0-5.894-.478-5.894-1.068 0-.59 2.639-1.07 5.894-1.07 3.256 0 5.895.48 5.895 1.07 0 .59-2.639 1.069-5.895 1.069zm-30.803 0c-3.256 0-5.895-.478-5.895-1.068 0-.59 2.639-1.07 5.895-1.07 3.255 0 5.894.48 5.894 1.07 0 .59-2.639 1.069-5.894 1.069z" fill="#1D1919"/><path d="M137.882 174.714s4.265 8.196 2.475 18.142m122.571-14.659s-4.887 6.958-1.806 18.05" stroke="#ECD9C4" stroke-width="10" stroke-miterlimit="10" stroke-linecap="round" stroke-linejoin="round"/><path d="M166.874 53.194s5.141 2.8 4.667 8.119c0 0-1.521-3.069-4.667-2.472" stroke="#F7AD89" stroke-width="5" stroke-miterlimit="10" stroke-linecap="round" stroke-linejoin="round"/><path d="M237.117 66.2c-4.218 0-7.637-3.652-7.637-8.157 0-4.504 3.419-8.156 7.637-8.156s7.637 3.652 7.637 8.157c0 4.504-3.419 8.156-7.637 8.156z" fill="#FDBF9E"/><path d="M239.407 53.194s-5.141 2.8-4.667 8.119c0 0 1.521-3.069 4.667-2.472m-39.623 88.038v34.983" stroke="#F7AD89" stroke-width="5" stroke-miterlimit="10" stroke-linecap="round" stroke-linejoin="round"/><path d="M144.246 191.083c1.421 3.64 6.911.971 8.963 5.203.996 2.055-3.004 7.126-1.599 9.629 1.215 2.166 7.594 1.394 9.08 3.644 1.422 2.154-1.778 7.744-.136 9.766 1.676 2.062 7.729.005 9.604 1.717 2.009 1.834.53 8.394 2.734 9.567" stroke="#6EABF7" stroke-width="5" stroke-miterlimit="10" stroke-linejoin="round"/><path d="M202 7.479s-1.404 5.517 2.5 15.415c2.814 7.135 0 9.5 15 21s17.532 19.942 27.5 19c0 0-4.596-57.93-45-55.415z" fill="#4D4037"/><path d="M250.821 191.553c-1.392 3.655 3.976 5.788 1.956 10.041-.98 2.066-7.41 1.789-8.797 4.305-1.2 2.177 2.499 7.456 1.029 9.719-1.41 2.167-7.701.899-9.333 2.933-1.666 2.076.849 8.008-1.02 9.728-2.005 1.844-7.839-.99-10.045.186" stroke="#6EABF7" stroke-width="5" stroke-miterlimit="10" stroke-linecap="round" stroke-linejoin="round"/><path d="M134.798 195.793s21.611-12.883 33.398-8.233l15.351 22.036s-4.856 27.895-32.457 33.088m113.575-44.636s-26.682-14.195-33.399-10.489l-15.35 22.036s8.577 32.952 30.835 37.111" stroke="#ECD9C4" stroke-width="10" stroke-miterlimit="10" stroke-linecap="round" stroke-linejoin="round"/><path d="M203.928 7.477s9.344 3.588 6.551 11.918c-2.719 8.11-9.479 17-24.479 25.5s-18.849 16.495-27.5 14.5c0 0 7.936-54.341 45.428-51.918z" fill="#4D4037"/><path d="M248.916 165.024c.759-2.178 4.628-13.75 6.326-27.738.896-7.384 1.05-14.284.456-20.511-.737-7.738-2.641-14.519-5.656-20.153-13.65-25.505-20.013-56.495-15.042-56.495h-8c-.056.348.5 6.268 3.5 18.268 2 10.5 4.226 14.18 5.665 20.491 1.814 7.946 4.505 15.287 7.999 21.818 9.392 17.549 3.359 46.74-1.686 61.221l4.957-3.228 1.481 6.327zm-90.479-.143l2.23-4.259 4.322 1.66c-5.149-12.865-11.317-38.712-1.769-53.982 3.554-5.682 6.288-12.095 8.126-19.06 1.461-5.532 2.364-11.423 2.683-17.51.544-10.366 2.471-18.336 4.971-25.836l-1.5-1-1.5-2c.012.07-7.476 14.914-8 24.5-.477 8.723-3.58 25.692-10.767 37.189-3.065 4.903-4.998 10.839-5.742 17.643-.599 5.474-.438 11.558.482 18.083 1.739 12.361 5.691 22.637 6.464 24.572z" fill="#FFB45A"/><path d="M165.249 17.887c22.679 2.186 14.848 22.582 5.33 11.645-2.577-2.924-4.806-7.348-5.33-11.645z" fill="#697F4E"/><path d="M165.952 18.581c.603.428 1.202.86 1.787 1.312.589.445 1.168.9 1.741 1.364a48.811 48.811 0 013.31 2.92c.531.508 1.038 1.04 1.532 1.582.498.54.957 1.112 1.402 1.695.44.584.846 1.198 1.199 1.84.361.638.656 1.313.877 2.017-.144-.726-.41-1.424-.723-2.097a13.315 13.315 0 00-1.13-1.92c-.102-.156-.214-.305-.324-.454-.112-.148-.222-.3-.339-.442l-.349-.435-.362-.424a29.338 29.338 0 00-1.536-1.613 39.108 39.108 0 00-1.649-1.495 40.022 40.022 0 00-1.739-1.387 35.379 35.379 0 00-3.697-2.463z" fill="#415814"/><path d="M193 9.395c22.777.618 16.381 21.505 6.126 11.249-2.774-2.74-5.304-6.997-6.126-11.25z" fill="#697F4E"/><path d="M193.749 10.04c.631.384 1.259.774 1.874 1.184.618.403 1.229.819 1.832 1.242a49.138 49.138 0 013.506 2.684c.564.47 1.108.964 1.637 1.473a23.562 23.562 0 011.516 1.593c.48.553.927 1.136 1.323 1.752a10.47 10.47 0 011.016 1.954c-.194-.715-.509-1.393-.868-2.043a13.286 13.286 0 00-1.26-1.838c-.113-.148-.234-.288-.355-.43-.121-.14-.241-.283-.369-.418l-.379-.41-.39-.398a29.538 29.538 0 00-1.643-1.505 39.27 39.27 0 00-1.75-1.377 40.757 40.757 0 00-1.83-1.265 35.691 35.691 0 00-3.86-2.199z" fill="#415814"/><path d="M155.104 39.379c17.39-14.664 26.603 5.15 12.095 4.316-3.901-.198-8.637-1.692-12.095-4.316z" fill="#748E4F"/><path d="M156.096 39.36a53.135 53.135 0 012.19-.36c.731-.11 1.463-.206 2.196-.291a49.687 49.687 0 014.41-.328 31.503 31.503 0 012.206.01 23.7 23.7 0 012.196.182c.729.092 1.452.23 2.16.427a10.65 10.65 0 012.065.781c-.622-.404-1.311-.7-2.013-.946a13.43 13.43 0 00-2.17-.533 9.907 9.907 0 00-.553-.084c-.185-.025-.369-.052-.555-.067l-.556-.054-.557-.037a29.593 29.593 0 00-2.233-.03c-.743.025-1.486.069-2.225.135-.74.074-1.477.16-2.21.273a35.34 35.34 0 00-4.351.923z" fill="#415814"/><path d="M250.629 39.097c-18.782-12.849-25.949 7.789-11.598 5.506 3.861-.589 8.422-2.55 11.598-5.506z" fill="#697F4E"/><path d="M249.643 39.178a35.822 35.822 0 00-4.421-.484 40.436 40.436 0 00-2.227-.05c-.743.007-1.486.038-2.227.089-.742.056-1.482.14-2.219.253l-.551.092-.548.109c-.183.034-.364.08-.546.122-.181.043-.362.086-.54.14-.721.19-1.426.44-2.105.747-.673.315-1.328.68-1.907 1.143a10.57 10.57 0 011.975-.983 15.406 15.406 0 012.106-.64 23.835 23.835 0 012.167-.401c.727-.101 1.46-.182 2.195-.232a49.622 49.622 0 014.42-.116c.738.011 1.477.034 2.215.07.736.03 1.474.082 2.213.14z" fill="#415814"/><path d="M246.726 54.378c-7.195-21.589-25.379-9.481-12.567-2.624 3.432 1.864 8.251 3.06 12.567 2.624z" fill="#697F4E"/><path d="M245.892 53.846a35.716 35.716 0 00-3.229-3.057 40.72 40.72 0 00-1.743-1.386 37.901 37.901 0 00-1.829-1.276 29.553 29.553 0 00-1.92-1.14l-.495-.26-.502-.243c-.167-.084-.339-.157-.509-.233-.17-.075-.34-.15-.515-.216a13.369 13.369 0 00-2.128-.676c-.727-.156-1.469-.262-2.21-.242.738.06 1.463.199 2.168.41.705.202 1.395.462 2.064.762.668.304 1.33.626 1.968.991.641.36 1.273.738 1.889 1.142a49.604 49.604 0 013.591 2.58c.582.456 1.156.92 1.722 1.395a54.41 54.41 0 011.678 1.45z" fill="#415814"/><path d="M226.521 18.673c-22.668 2.005-15.096 22.497-5.461 11.62 2.608-2.908 4.886-7.32 5.461-11.62z" fill="#697F4E"/><path d="M225.811 19.362a35.826 35.826 0 00-3.722 2.434 40.39 40.39 0 00-1.751 1.375 37.94 37.94 0 00-1.665 1.484 29.232 29.232 0 00-1.552 1.604l-.368.422-.354.432c-.12.143-.231.293-.344.44-.112.15-.224.298-.329.452a13.38 13.38 0 00-1.15 1.914c-.32.671-.595 1.369-.747 2.094A10.48 10.48 0 01214.73 30c.36-.64.772-1.25 1.219-1.832.451-.58.917-1.15 1.42-1.686a31.715 31.715 0 011.548-1.573 49.554 49.554 0 013.34-2.897c.578-.46 1.162-.912 1.756-1.352a55.73 55.73 0 011.798-1.297z" fill="#415814"/><path d="M185.216 13.052c-10.59 20.142 10.737 24.874 6.81 10.883-1.031-3.766-3.507-8.07-6.81-10.883z" fill="#697F4E"/><path d="M185.41 14.022a35.861 35.861 0 00.031 4.447c.046.741.121 1.48.208 2.217.093.738.21 1.472.346 2.203.141.73.311 1.455.507 2.174l.156.537.172.532c.055.178.121.353.184.528.064.174.128.35.201.52.273.695.602 1.366.986 2.005.391.632.829 1.24 1.356 1.761a10.47 10.47 0 01-1.205-1.848 15.296 15.296 0 01-.88-2.017 24.09 24.09 0 01-.649-2.106 32.077 32.077 0 01-.484-2.153 49.772 49.772 0 01-.626-4.378 65.1 65.1 0 01-.186-2.208 57.98 57.98 0 01-.117-2.214z" fill="#415814"/><path d="M163.091 55.6c22.749.573 17.544-20.644 6.74-10.926-2.92 2.593-5.682 6.72-6.74 10.927z" fill="#697F4E"/><path d="M163.875 54.997A35.88 35.88 0 00167.848 53c.644-.37 1.273-.764 1.896-1.169.62-.41 1.226-.84 1.821-1.286.592-.45 1.167-.923 1.725-1.418l.412-.378.401-.389c.135-.128.262-.265.391-.399s.257-.27.378-.41c.501-.553.958-1.145 1.36-1.773.394-.63.745-1.292.979-1.996a10.568 10.568 0 01-1.123 1.9c-.43.595-.909 1.155-1.419 1.682a23.852 23.852 0 01-1.601 1.514c-.556.48-1.127.946-1.716 1.388a49.704 49.704 0 01-3.647 2.5c-.626.392-1.258.775-1.897 1.146-.634.376-1.282.733-1.933 1.085z" fill="#415814"/><path d="M175.998 28.886c.256 7.39 8.803 7.223 8.768-.171-.257-7.392-8.804-7.223-8.768.17z" fill="#FF5649"/><path d="M184.148 28.538c-6.38 3.782-2.117 11.163 4.373 7.572 6.379-3.782 2.117-11.163-4.373-7.572z" fill="#FF5649"/><path d="M188.665 35.91c-6.757-3.061-10.412 4.636-3.75 7.897 6.757 3.063 10.413-4.635 3.75-7.896zm-17.271-.965c5.099 5.375 11.399-.381 6.463-5.905-5.099-5.375-11.399.38-6.463 5.905z" fill="#FF5649"/><path d="M176.885 42.813c6.185-4.092 1.563-11.254-4.741-7.349-6.185 4.09-1.563 11.253 4.741 7.349z" fill="#FF5649"/><path d="M184.353 43.494c.473-7.38-8.048-8.048-8.743-.686-.473 7.38 8.049 8.049 8.743.686z" fill="#FF5649"/><path d="M176.84 36.179c.177 4.82 7.378 4.68 7.365-.144-.177-4.82-7.378-4.678-7.365.144z" fill="#FFB45A"/><path d="M198.752 19.81c.261 7.39 8.808 7.216 8.768-.178-.262-7.39-8.808-7.217-8.768.177z" fill="#FF5649"/><path d="M206.902 19.457c-6.378 3.787-2.11 11.165 4.377 7.57 6.378-3.788 2.11-11.165-4.377-7.57z" fill="#FF5649"/><path d="M211.426 26.826c-6.76-3.058-10.411 4.64-3.746 7.899 6.76 3.058 10.41-4.641 3.746-7.9zm-17.271-.954c5.103 5.371 11.399-.388 6.461-5.908-5.104-5.373-11.399.386-6.461 5.908z" fill="#FF5649"/><path d="M199.652 33.735c6.182-4.095 1.555-11.255-4.746-7.346-6.183 4.095-1.557 11.255 4.746 7.346z" fill="#FF5649"/><path d="M207.12 34.414c.468-7.381-8.054-8.044-8.743-.682-.468 7.381 8.054 8.044 8.743.682z" fill="#FF5649"/><path d="M199.602 27.102c.181 4.82 7.381 4.675 7.366-.149-.181-4.82-7.382-4.673-7.366.15z" fill="#FFB45A"/><path d="M221.272 30.729c1.413 7.26 9.828 5.765 8.634-1.534-1.413-7.261-9.829-5.764-8.634 1.534z" fill="#FF5649"/><path d="M229.267 29.116c-5.708 4.729-.34 11.356 5.506 6.8 5.708-4.73.34-11.356-5.506-6.8z" fill="#FF5649"/><path d="M234.886 35.696c-7.155-1.973-9.558 6.198-2.466 8.383 7.156 1.972 9.559-6.2 2.466-8.383zm-17.209 1.732c5.879 4.516 11.199-2.15 5.459-6.837-5.88-4.515-11.2 2.15-5.459 6.837z" fill="#FF5649"/><path d="M224.335 44.345c5.467-5.004-.222-11.359-5.836-6.52-5.468 5.003.221 11.358 5.836 6.52z" fill="#FF5649"/><path d="M231.818 43.857c-.69-7.363-9.212-6.697-8.743.683.69 7.362 9.212 6.697 8.743-.683z" fill="#FF5649"/><path d="M223.25 37.8c.931 4.734 8.021 3.474 7.252-1.288-.932-4.733-8.021-3.473-7.252 1.288z" fill="#FFB45A"/><path d="M162.473 44.79s-2.821-.909-2.266-3.24c.555-2.332 3.205-.278 3.937 1.221 0 0-1.499-3.205.661-3.901 2.16-.696 1.882 2.23 1.776 3.73 0 0 1.393-4.149 3.518-2.509 2.124 1.64-.767 3.73-.767 3.73s2.856-.909 3.068 1.256c.207 2.16-2.755 2.615-4.184 1.989 0 0 3.205 3.31.873 4.633-2.336 1.322-3.8-2.544-3.8-2.544s-.555 2.998-2.755 2.23c-2.195-.766-.177-3.8-.177-3.8s-3.588 1.429-4.219-.625c-.61-2.064 4.335-2.17 4.335-2.17z" fill="#FFFDEE"/><path d="M165.758 44.017c2.352.147 1.61 2.74-.247 2.761-1.882.02-2.104-2.907.247-2.76z" fill="#E18872"/><path d="M232.799 48.214s-2.328-.75-1.87-2.674c.458-1.923 2.644-.229 3.248 1.008 0 0-1.237-2.644.545-3.219 1.783-.575 1.554 1.84 1.466 3.077 0 0 1.149-3.422 2.902-2.07 1.754 1.354-.632 3.078-.632 3.078s2.356-.75 2.531 1.037c.171 1.782-2.273 2.157-3.452 1.64 0 0 2.644 2.732.721 3.823-1.928 1.091-3.136-2.099-3.136-2.099s-.458 2.474-2.273 1.84c-1.812-.632-.146-3.135-.146-3.135s-2.961 1.179-3.481-.516c-.504-1.703 3.577-1.79 3.577-1.79z" fill="#FFFDEE"/><path d="M235.509 47.577c1.941.12 1.329 2.26-.204 2.277-1.553.017-1.736-2.398.204-2.277z" fill="#E18872"/><path d="M186.95 19.125s-2.484-4.635.034-4.782c2.518-.146 1.751 4.523 1.751 4.523s1.824-4.38 3.868-2.81c2.043 1.569-2.044 3.906-2.919 4.014 0 0 4.415 1.642 3.138 3.1-1.276 1.461-4.634-1.677-4.634-1.677s-.147 4.195-2.993 3.54c-2.846-.656 1.423-4.38 1.423-4.38s-2.884 1.495-3.794-.182c-.91-1.674 2.556-2.33 4.126-1.346z" fill="#F5DF79"/><path d="M188.093 19.016c1.308.046 1.273 1.974-.125 1.783-1.402-.192-1.127-1.824.125-1.783z" fill="#E18872"/><path d="M218.595 22.555s-2.484-4.635.034-4.781c2.518-.147 1.751 4.523 1.751 4.523s1.824-4.38 3.868-2.81c2.043 1.569-2.044 3.905-2.919 4.013 0 0 4.415 1.643 3.138 3.1-1.276 1.462-4.634-1.677-4.634-1.677s-.147 4.196-2.993 3.54c-2.845-.656 1.423-4.38 1.423-4.38s-2.884 1.496-3.794-.182c-.91-1.674 2.556-2.33 4.126-1.346z" fill="#F5DF79"/><path d="M219.738 22.447c1.308.045 1.273 1.974-.125 1.782-1.402-.192-1.127-1.824.125-1.782z" fill="#E18872"/></svg>