<svg width="543" height="382" fill="none" xmlns="http://www.w3.org/2000/svg"><circle cx="208" cy="195" r="187" fill="#5281F0"/><g clip-path="url(#clip0_1978_3760)"><path d="M230.364 45.155s-20.851-6.954-38.227 12.168c-13.222 14.55-24.325 55.628-39.964 78.227-15.638 22.599-45.176 50.413-48.651 81.704-3.267 29.379.973 87.11 26.063 114.733 17.376 19.122 68.825 40.174 68.825 40.174l155.963-30.039s23.075-84.677 1.095-119.653c-38.226-60.843-32.631-91.595-39.964-123.425-5.213-22.599-15.638-39.982-41.701-52.15-26.064-12.17-43.439-1.74-43.439-1.74z" fill="#1C1A18"/><path d="M255.263 179.41c26.063 1.599 91.482 21.799 105.418 69.135 13.935 47.336 8.687 99.088-36.489 118.21-40.12 16.984-60.207.191-60.207.191s-22.588 18.201-50.545 14.567c-27.957-3.633-80.154-43.702-83.646-100.147-3.493-56.446 36.593-107.415 125.469-101.956z" fill="#fff"/><path opacity=".7" d="M237.904 133.808c.232-2.475-3.267-4.828-7.815-5.254-4.548-.426-8.423 1.236-8.655 3.711-.232 2.476 3.267 4.828 7.815 5.255 4.548.426 8.423-1.236 8.655-3.712z" fill="#EAB7A0"/><path d="M289.337 105.007c5.612 35.602-1.634 65.311-26.272 70.056-24.326 4.677-49.156-14.95-57.879-47.388-8.722-32.438 3.024-63.798 26.272-70.056 23.249-6.258 52.648 14.185 57.879 47.388z" fill="#F6CAB4"/><path d="M214.726 132.073s-12.163-10.43-17.376-6.953c-5.213 3.476 5.213 24.337 10.425 22.599 5.213-1.739 6.082-7.823 6.082-7.823l.869-7.823zm73.846-23.468s3.475-10.43 8.688-6.953c5.212 3.477 3.701 16.063 2.606 18.253-1.737 3.477-8.688 6.953-8.688 6.953l-2.606-18.253zm-64.29 31.291l12.163 46.937s6.95 19.122 20.851 19.122c13.9 0 15.638-12.169 15.638-20.861s-5.213-36.506-5.213-36.506l-43.439-8.692zm98.172 176.446l-17.375-22.599s15.638-13.907 17.375-20.861c1.738-6.953 0-26.076 3.476-26.076 3.475 0 6.95 17.384 6.95 17.384l20.85-20.86c6.951-6.954 6.951 0 3.476 3.476a127.86 127.86 0 00-8.688 10.431s6.95-5.215 12.163-8.692c5.212-3.477 6.95 0 3.475 3.477-3.475 3.476-12.163 13.907-12.163 13.907s10.425-5.215 15.638-8.692c5.213-3.477 5.213 1.738 3.475 3.477-1.738 1.738-13.9 10.43-13.9 10.43s10.425-3.477 13.9-5.215c3.475-1.739 1.738 1.738-1.738 5.215-3.475 3.477-8.687 6.953-12.162 10.43-3.476 3.477-10.426 13.907-19.114 19.122-8.687 5.215-15.638 15.646-15.638 15.646zm-91.934-13.908l17.376-22.599s-15.638-13.907-17.376-20.86c-1.737-6.954 0-26.076-3.475-26.076s-6.95 17.384-6.95 17.384l-20.851-20.86c-6.95-6.954-6.95 0-3.475 3.476a128.099 128.099 0 018.688 10.431s-6.95-5.216-12.163-8.692c-5.213-3.477-6.95 0-3.475 3.476 3.475 3.477 12.163 13.907 12.163 13.907s-10.426-5.215-15.638-8.691c-5.213-3.477-5.213 1.738-3.476 3.476 1.738 1.739 13.901 10.431 13.901 10.431s-10.425-3.477-13.901-5.216c-3.475-1.738-1.737 1.739 1.738 5.216 3.475 3.476 8.688 6.953 12.163 10.43 3.475 3.477 10.425 13.907 19.113 19.122 8.688 5.215 15.638 15.645 15.638 15.645z" fill="#F6CAB4"/><path d="M180.843 261.583s17.376 52.151 41.702 55.628c24.326 3.477 78.19-29.552 78.19-29.552l24.326 33.029s-48.652 39.982-60.815 46.936" stroke="#DEDFE0" stroke-width=".5" stroke-miterlimit="10"/><path d="M277.156 300.626l-26.81-25.137-22.589 31.291 7.09 9.822m65.888-61.973s1.946 31.291-5.977 36.506" stroke="#DEDFE0" stroke-width=".5" stroke-miterlimit="10"/><path d="M235.211 112.534s-1.737 1.495-8.097 2.347a37.17 37.17 0 01-8.844.487s-1.737 4.537-2.589 4.902c-.851.365 2.676-.209 3.562-.365 2.589-.469 8.184-2.521 10.078-2.955 4.674-1.078 7.611-4.172 5.89-4.416zm21.772-4.797s2.259.712 8.393-.8a36.692 36.692 0 008.392-2.833s3.475 3.72 4.222 3.598a23.67 23.67 0 01-3.475.973c-2.572.522-8.531.696-10.425.991-4.744.643-8.619-1.147-7.107-1.929z" fill="#1C1A18"/><path d="M256.427 126.858s5.213 3.477 5.213 6.954-5.213 5.215-5.213 5.215" stroke="#C6A291" stroke-width=".5" stroke-miterlimit="10"/><path d="M272.934 145.111s-1.738 6.954-12.163 10.431c-10.425 3.476-20.851-3.477-20.851-3.477" fill="#fff"/><path d="M233.839 104.259s-13.901-3.477-19.113 0a51.461 51.461 0 00-6.951 5.215s3.476-6.953 8.688-8.692c5.213-1.738 15.638-1.738 17.376 0 1.737 1.739 1.737 3.477 0 3.477zm21.285-3.893s11.485-8.57 17.636-7.388a51.096 51.096 0 018.427 2.138s-5.89-5.076-11.363-4.659c-5.474.417-15.1 4.433-16.038 6.693-.938 2.26-.261 3.876 1.338 3.216z" fill="#1C1A18"/><path d="M226.506 54.09c17.376-3.737 43.439 2.834 52.37 16.602 8.931 13.768 9.036 22.477 9.036 22.477l-31.276 3.929-8.897-17.175.278 19.122-26.897 2.573-2.728-9.092-2.276 9.787s-11.416 4.328-13.136 6.084l-3.684 3.807s-3.475-17.61 3.267-31.62c6.742-14.012 15.273-24.634 23.943-26.494z" fill="#1C1A18"/><path opacity=".7" d="M230.496 134.049c4.469-.944 7.677-3.681 7.164-6.114-.513-2.433-4.552-3.641-9.022-2.697-4.469.943-7.677 3.68-7.164 6.113.513 2.433 4.552 3.641 9.022 2.698zm43.445-10.431c4.47-.943 7.677-3.68 7.164-6.113-.513-2.433-4.552-3.641-9.021-2.698-4.47.943-7.677 3.68-7.164 6.113.512 2.433 4.552 3.641 9.021 2.698z" fill="#EAB7A0"/><path d="M197.35 52.108c-7.228 4.816-27.436 32.387-34.751 45.198-13.901 24.338-26.064 36.75-41.702 55.628-34.75 41.721-27.8 66.059-22.588 86.919 7.472 29.883 8.688 33.029 8.688 33.029a275.191 275.191 0 01-8.688-50.413c-1.633-24.528 8.688-36.505 26.063-60.843 9.991-14.011 43.439-46.936 50.39-66.058 6.95-19.122 27.801-46.936 22.588-43.46z" fill="#1C1A18"/></g><path d="M16.9 0h96.275c4.462 0 8.742 1.786 11.897 4.964A17.01 17.01 0 01130 16.947v59.71c0 4.202-1.656 8.232-4.604 11.205a15.682 15.682 0 01-11.118 4.65h-3.982l11.217 24.292c1.869 3.766 0 3.766-1.87 2.24l-31.78-26.531H16.825a16.763 16.763 0 01-11.897-4.964A17.01 17.01 0 010 75.565V16.947c0-2.232.438-4.441 1.288-6.502a16.956 16.956 0 013.666-5.508 16.817 16.817 0 015.484-3.668A16.719 16.719 0 0116.9 0z" fill="#DFE7F9"/><path d="M478.31 220h-83.685a14.597 14.597 0 00-10.342 4.302A14.72 14.72 0 00380 234.688v51.749c0 3.641 1.439 7.134 4.002 9.71a13.652 13.652 0 009.664 4.031h3.461l-9.75 21.052c-1.625 3.264 0 3.264 1.625 1.942l27.625-22.994h61.748c3.879 0 7.599-1.548 10.342-4.302A14.724 14.724 0 00493 285.49v-50.802a14.711 14.711 0 00-4.306-10.409A14.588 14.588 0 00478.31 220z" fill="#A4BFFD"/><path d="M65.667 285.537C52.685 265.837 26 276.231 26 296.415 26 323.125 65.667 345 65.667 345s39.666-21.875 39.666-48.585c0-20.184-26.564-30.457-39.666-10.878z" fill="#7AA2FF"/><path d="M28.404 307.895c8.535 21.271 37.263 37.103 37.263 37.103s28.728-15.832 37.263-37.103H28.404z" fill="#F3B245"/><path d="M521 134.021c-7.2-11.257-22-5.317-22 6.216C499 155.5 521 168 521 168s22-12.5 22-27.763c0-11.533-14.733-17.404-22-6.216z" fill="#7AA2FF"/><path d="M500.334 146.798C505.067 158.953 521 168 521 168s15.934-9.047 20.667-21.202h-41.333z" fill="#F3B245"/><circle cx="409" cy="89" r="49" fill="#F3B245"/><circle cx="392" cy="78" r="4" fill="#fff"/><circle cx="426" cy="78" r="4" fill="#fff"/><path d="M380 97c4.222 5.158 15.924 15.576 28.952 15.989 13.029.412 24.127-10.488 28.048-15.989" stroke="#fff" stroke-width="2"/><rect x="25" y="26" width="80" height="8" rx="4" fill="#fff"/><rect width="69" height="7" rx="3.5" transform="matrix(-1 0 0 1 471 242)" fill="#fff"/><rect x="25" y="42" width="80" height="8" rx="4" fill="#fff"/><rect width="69" height="7" rx="3.5" transform="matrix(-1 0 0 1 471 256)" fill="#fff"/><rect x="25" y="58" width="80" height="8" rx="4" fill="#fff"/><rect width="69" height="7" rx="3.5" transform="matrix(-1 0 0 1 471 270)" fill="#fff"/><defs><clipPath id="clip0_1978_3760"><path fill="#fff" transform="translate(94 41)" d="M0 0h279v341H0z"/></clipPath></defs></svg>