<?xml version="1.0" encoding="utf-8"?>
<!-- Generator: Adobe Illustrator 25.4.1, SVG Export Plug-In . SVG Version: 6.00 Build 0)  -->
<svg version="1.1" id="Layer_1" xmlns="http://www.w3.org/2000/svg" xmlns:xlink="http://www.w3.org/1999/xlink" x="0px" y="0px"
	 viewBox="0 0 720 720" style="enable-background:new 0 0 720 720;" xml:space="preserve">
<style type="text/css">
	.st0{fill-rule:evenodd;clip-rule:evenodd;}
</style>
<g id="Logo_Icon">
	<path class="st0" d="M204.2,268.6c3.9-6.2,5.5-14.1,5.5-21.9c0-23.4-18.7-43-42.2-43s-42.2,19.5-42.2,43s18.7,43,42.2,43
		c1.6,0,2.3,0,3.9,0c-1.6,1.6-2.3,3.1-3.9,4.7c-52.3,76.5,111.7,212.4,185.1,221.8c-1.6-0.8-3.1-1.6-4.7-2.3
		c-46.1-23.4-136.7-68.7-127.3-157c9.4-91.4,122.6-47.6,138.2-41.4C322.9,290.5,253.4,255.3,204.2,268.6z"/>
	<path class="st0" d="M517.4,268.6c-3.1-6.2-5.5-13.3-5.5-21.1c0-24.2,18.7-43.7,41.4-43.7s41.4,19.5,41.4,43.7
		s-18.7,43.7-41.4,43.7c-0.8,0-2.3,0-3.1,0c0.8,0.8,1.6,2.3,2.3,3.1c52.3,76.5-112.5,212.4-186.7,221.8c1.6-0.8,3.1-1.6,4.7-2.3
		c46.1-23.4,137.5-68.7,128.1-157.8c-9.4-91.4-122.6-47.6-138.2-41.4C396.3,289.7,468.2,253.8,517.4,268.6z"/>
</g>
</svg>
