<svg width="16" height="14" fill="none" xmlns="http://www.w3.org/2000/svg"><path d="M15.637 2.111c-.251.112-.51.206-.774.282a3.42 3.42 0 00.697-1.224.258.258 0 00-.377-.301 6.09 6.09 0 01-1.8.711A3.452 3.452 0 0010.977.6a3.439 3.439 0 00-3.406 3.879 8.794 8.794 0 01-6.036-3.202.258.258 0 00-.423.033 3.433 3.433 0 00-.465 1.727c0 .828.295 1.613.817 2.227a2.909 2.909 0 01-.46-.206.258.258 0 00-.383.22v.046c0 1.235.665 2.348 1.681 2.954a2.963 2.963 0 01-.261-.038.258.258 0 00-.294.332 3.433 3.433 0 002.516 2.302 6.076 6.076 0 01-3.248.927c-.243 0-.488-.014-.728-.042a.258.258 0 00-.17.473 9.262 9.262 0 005.01 1.468c3.497 0 5.684-1.649 6.904-3.032 1.52-1.725 2.392-4.008 2.392-6.264 0-.094-.001-.19-.004-.285a6.675 6.675 0 001.536-1.627.258.258 0 00-.319-.38z" fill="#fff"/></svg>