<svg version="1.1" id="Layer_1" xmlns="http://www.w3.org/2000/svg" x="0" y="0" viewBox="0 0 1440 900" xml:space="preserve"><style>.st1,.st2{opacity:.2;fill:#fff;enable-background:new}.st2{opacity:.3}</style><g opacity=".8"><circle class="st1" cx="878.5" cy="253.8" r="2"/><circle class="st1" cx="878.5" cy="573.8" r="2"/><circle class="st1" cx="828.3" cy="207.7" r="2"/><circle class="st1" cx="828.3" cy="527.7" r="2"/><circle class="st1" cx="820.3" cy="253.8" r="1"/><circle class="st1" cx="820.3" cy="573.8" r="1"/><circle class="st1" cx="335.8" cy="241.8" r="3"/><circle class="st1" cx="564.5" cy="266.8" r="3"/><circle class="st1" cx="335.8" cy="561.8" r="3"/><circle class="st1" cx="475.4" cy="756.7" r="3"/><circle class="st1" cx="356.8" cy="216.7" r="3"/><circle class="st1" cx="132.3" cy="829.9" r="3"/><circle class="st1" cx="899.8" cy="641.3" r="3"/><circle class="st1" cx="496.3" cy="268.9" r="3"/><circle class="st1" cx="356.8" cy="536.7" r="3"/><circle class="st1" cx="506.5" cy="746.5" r="3"/><circle class="st1" cx="730" cy="161.5" r="1"/><circle class="st1" cx="730" cy="481.5" r="1"/><circle class="st1" cx="742.1" cy="122.4" r="1"/><circle class="st1" cx="742.1" cy="442.4" r="1"/><circle class="st1" cx="758.1" cy="190.6" r="1"/><circle class="st1" cx="758.1" cy="510.6" r="1"/><circle class="st1" cx="12.8" cy="162.5" r="1"/><circle class="st1" cx="12.8" cy="482.5" r="1"/><circle class="st1" cx="38.8" cy="170.5" r="2"/><circle class="st1" cx="38.8" cy="490.6" r="2"/><circle class="st1" cx="58.9" cy="143.5" r="2"/><circle class="st1" cx="58.9" cy="463.5" r="2"/><circle class="st1" cx="158.2" cy="147.5" r="2"/><circle class="st1" cx="296.7" cy="698.7" r="2"/><circle class="st1" cx="983.9" cy="834.1" r="2"/><circle class="st1" cx="158.2" cy="467.5" r="2"/><circle class="st1" cx="265.6" cy="116.4" r="2"/><circle class="st1" cx="265.8" cy="806.1" r="2"/><circle class="st1" cx="888.2" cy="776.4" r="2"/><circle class="st1" cx="265.6" cy="436.4" r="2"/><circle class="st1" cx="291.6" cy="151.5" r="2"/><circle class="st1" cx="222.2" cy="809.5" r="2"/><circle class="st1" cx="896.2" cy="733.4" r="2"/><circle class="st1" cx="291.6" cy="471.5" r="2"/><circle class="st1" cx="741.1" cy="740.4" r="2"/><circle class="st1" cx="249.5" cy="124.4" r="2"/><circle class="st1" cx="267.6" cy="788.3" r="2"/><circle class="st1" cx="905" cy="782.7" r="2"/><circle class="st1" cx="249.5" cy="444.4" r="2"/><circle class="st1" cx="698.9" cy="713.3" r="2"/><circle class="st1" cx="274.6" cy="82.3" r="2"/><circle class="st1" cx="274.6" cy="402.3" r="2"/><circle class="st1" cx="293.6" cy="86.3" r="2"/><circle class="st1" cx="276.3" cy="845.9" r="2"/><circle class="st1" cx="847" cy="776.2" r="2"/><circle class="st1" cx="293.6" cy="406.3" r="2"/><circle class="st1" cx="316.7" cy="57.2" r="2"/><circle class="st1" cx="316.7" cy="377.2" r="2"/><circle class="st1" cx="766.1" cy="646.1" r="2"/><circle class="st1" cx="602.2" cy="871" r="2"/><circle class="st1" cx="356.8" cy="45.1" r="2"/><circle class="st1" cx="356.8" cy="365.2" r="2"/><circle class="st1" cx="427.1" cy="57.2" r="2"/><circle class="st1" cx="427.1" cy="377.2" r="2"/><circle class="st1" cx="443.1" cy="65.2" r="2"/><circle class="st1" cx="443.1" cy="385.2" r="2"/><circle class="st1" cx="253.5" cy="90.3" r="2"/><circle class="st1" cx="294.3" cy="809.9" r="2"/><circle class="st1" cx="877.2" cy="803" r="2"/><circle class="st1" cx="253.5" cy="410.3" r="2"/><circle class="st1" cx="13.8" cy="94.3" r="2"/><circle class="st1" cx="13.8" cy="414.3" r="2"/><circle class="st1" cx="94" cy="334.1" r="2"/><circle class="st1" cx="94" cy="654.1" r="2"/><circle class="st1" cx="114.1" cy="343.1" r="2"/><circle class="st1" cx="114.1" cy="663.1" r="2"/><circle class="st1" cx="158.2" cy="378.2" r="2"/><circle class="st1" cx="158.2" cy="698.2" r="2"/><circle class="st1" cx="135.1" cy="311" r="2"/><circle class="st1" cx="135.1" cy="631" r="2"/><circle class="st1" cx="143.2" cy="266.8" r="2"/><circle class="st1" cx="143.2" cy="586.9" r="2"/><circle class="st1" cx="179.3" cy="307" r="2"/><circle class="st1" cx="179.3" cy="627" r="2"/><circle class="st1" cx="233.5" cy="237.8" r="2"/><circle class="st1" cx="233.5" cy="557.8" r="2"/><circle class="st1" cx="177.3" cy="199.6" r="2"/><circle class="st1" cx="242.4" cy="687.1" r="2"/><circle class="st1" cx="1009.3" cy="784.7" r="2"/><circle class="st1" cx="177.3" cy="519.7" r="2"/><circle class="st1" cx="291.6" cy="303" r="2"/><circle class="st1" cx="291.6" cy="623" r="2"/><circle class="st1" cx="583.6" cy="208.7" r="2"/><circle class="st1" cx="583.6" cy="528.7" r="2"/><circle class="st1" cx="754.1" cy="268.9" r="2"/><circle class="st1" cx="754.1" cy="588.9" r="2"/><circle class="st1" cx="806.3" cy="849.7" r="2"/><circle class="st1" cx="654.4" cy="844.6" r="2"/><circle class="st1" cx="955.7" cy="186.6" r="2"/><circle class="st1" cx="955.7" cy="506.6" r="2"/><circle class="st1" cx="800.3" cy="303" r="2"/><circle class="st1" cx="800.3" cy="623" r="2"/><circle class="st1" cx="852.4" cy="883.8" r="2"/><circle class="st1" cx="633.4" cy="898" r="2"/><circle class="st1" cx="980.8" cy="339.1" r="2"/><circle class="st1" cx="980.8" cy="659.1" r="2"/><circle class="st1" cx="955.7" cy="251.8" r="2"/><circle class="st1" cx="955.7" cy="571.8" r="2"/><circle class="st1" cx="755.1" cy="36.1" r="1"/><circle class="st1" cx="755.1" cy="356.1" r="1"/><circle class="st1" cx="776.2" cy="26.1" r="1"/><circle class="st1" cx="776.2" cy="346.1" r="1"/><circle class="st1" cx="735" cy="30.1" r="1"/><circle class="st1" cx="735" cy="350.1" r="1"/><circle class="st1" cx="683.9" cy="57.2" r="1"/><circle class="st1" cx="683.9" cy="377.2" r="1"/><circle class="st1" cx="812.3" cy="199.6" r="2"/><circle class="st1" cx="812.3" cy="519.7" r="2"/><circle class="st1" cx="611.7" cy="144.5" r="2"/><circle class="st1" cx="611.7" cy="464.5" r="2"/><circle class="st1" cx="593.6" cy="136.4" r="2"/><circle class="st1" cx="593.6" cy="456.5" r="2"/><circle class="st1" cx="637.7" cy="120.4" r="2"/><circle class="st1" cx="637.7" cy="440.4" r="2"/><circle class="st1" cx="629.7" cy="75.2" r="2"/><circle class="st1" cx="629.7" cy="395.3" r="2"/><circle class="st1" cx="896.6" cy="175.6" r="2"/><circle class="st1" cx="896.6" cy="495.6" r="2"/><circle class="st1" cx="832.4" cy="158.5" r="2"/><circle class="st1" cx="832.4" cy="478.5" r="2"/><circle class="st1" cx="862.5" cy="136.4" r="2"/><circle class="st1" cx="862.5" cy="456.5" r="2"/><circle class="st1" cx="627.7" cy="10" r="2"/><circle class="st1" cx="627.7" cy="330" r="2"/><circle class="st1" cx="591.6" cy="73.2" r="2"/><circle class="st1" cx="591.6" cy="393.2" r="2"/><circle class="st1" cx="569.5" cy="43.1" r="2"/><circle class="st1" cx="569.5" cy="363.2" r="2"/><circle class="st1" cx="896.6" cy="65.2" r="2"/><circle class="st1" cx="896.6" cy="385.2" r="2"/><circle class="st1" cx="984.8" cy="73.2" r="2"/><circle class="st1" cx="984.8" cy="393.2" r="2"/><circle class="st1" cx="1043" cy="668.1" r="2"/><circle class="st1" cx="1005.9" cy="21.1" r="2"/><circle class="st1" cx="1005.9" cy="341.1" r="2"/><circle class="st1" cx="1208.6" cy="18.1" r="2"/><circle class="st1" cx="1231.6" cy="358.1" r="2"/><circle class="st1" cx="874.5" cy="12" r="2"/><circle class="st1" cx="874.5" cy="332.1" r="2"/><circle class="st1" cx="755.1" cy="103.3" r="2"/><circle class="st1" cx="755.1" cy="423.3" r="2"/><circle class="st1" cx="849.4" cy="197.6" r="1"/><circle class="st1" cx="849.4" cy="517.6" r="1"/><circle class="st1" cx="854.4" cy="183.6" r="1"/><circle class="st1" cx="854.4" cy="503.6" r="1"/><circle class="st1" cx="834.4" cy="196.6" r="1"/><circle class="st1" cx="834.4" cy="516.6" r="1"/><circle class="st1" cx="1029" cy="228.7" r="4"/><circle class="st1" cx="1029" cy="548.7" r="4"/><circle class="st1" cx="1063.1" cy="724.3" r="4"/><circle class="st1" cx="1065.1" cy="262.8" r="2"/><circle class="st1" cx="1123.3" cy="537.7" r="2"/><circle class="st1" cx="1157.4" cy="713.3" r="2"/><circle class="st1" cx="1065.1" cy="582.9" r="2"/><circle class="st1" cx="1099.2" cy="758.4" r="2"/><circle class="st1" cx="1099.2" cy="260.8" r="2"/><circle class="st1" cx="1197.5" cy="700.2" r="2"/><circle class="st1" cx="1099.2" cy="580.8" r="2"/><circle class="st1" cx="1133.3" cy="756.4" r="2"/><circle class="st1" cx="1157.4" cy="855.7" r="2"/><circle class="st1" cx="1237.6" cy="113.4" r="4"/><circle class="st1" cx="1295.8" cy="388.2" r="4"/><circle class="st1" cx="1237.6" cy="433.4" r="4"/><circle class="st1" cx="1295.8" cy="708.3" r="4"/><circle class="st1" cx="1063.1" cy="187.6" r="4"/><circle class="st1" cx="1063.1" cy="507.6" r="4"/><circle class="st1" cx="1097.2" cy="683.2" r="4"/><circle class="st1" cx="827.3" cy="173.6" r="4"/><circle class="st1" cx="827.3" cy="493.6" r="4"/><circle class="st1" cx="648.8" cy="186.6" r="4"/><circle class="st1" cx="648.8" cy="506.6" r="4"/><circle class="st1" cx="703.9" cy="124.4" r="4"/><circle class="st1" cx="703.9" cy="444.4" r="4"/><circle class="st1" cx="457.2" cy="548.7" r="4"/><circle class="st1" cx="585.3" cy="809.7" r="4"/><circle class="st1" cx="767.7" cy="864.3" r="4"/><circle class="st1" cx="405" cy="594.9" r="4"/><circle class="st1" cx="516.7" cy="821.3" r="4"/><circle class="st1" cx="631.7" cy="625" r="4"/><circle class="st1" cx="421.1" cy="868.8" r="4"/><circle class="st1" cx="531.4" cy="45.1" r="4"/><circle class="st1" cx="531.4" cy="365.2" r="4"/><circle class="st1" cx="518.4" cy="4" r="4"/><circle class="st1" cx="518.4" cy="324" r="4"/><circle class="st1" cx="413" cy="274.9" r="4"/><circle class="st1" cx="449.1" cy="39.1" r="4"/><circle class="st1" cx="449.1" cy="359.1" r="4"/><circle class="st1" cx="477.2" cy="110.4" r="4"/><circle class="st1" cx="477.2" cy="430.4" r="4"/><circle class="st1" cx="391" cy="169.5" r="4"/><circle class="st1" cx="154" cy="883.9" r="4"/><circle class="st1" cx="842" cy="648.3" r="4"/><circle class="st1" cx="391" cy="489.6" r="4"/><circle class="st1" cx="202.4" cy="88.3" r="4"/><circle class="st1" cx="323.3" cy="767.6" r="4"/><circle class="st1" cx="910.5" cy="841.9" r="4"/><circle class="st1" cx="202.4" cy="408.3" r="4"/><circle class="st2" cx="141.2" cy="67.2" r="4"/><circle class="st2" cx="141.2" cy="387.2" r="4"/><circle class="st2" cx="263.5" cy="194.6" r="4"/><circle class="st2" cx="200.7" cy="762.7" r="4"/><circle class="st2" cx="947" cy="724.7" r="4"/><circle class="st2" cx="263.5" cy="514.6" r="4"/><circle class="st2" cx="713" cy="783.5" r="4"/><circle class="st2" cx="417" cy="689.2" r="4"/><circle class="st2" cx="374.9" cy="793.5" r="4"/><circle class="st2" cx="362.9" cy="752.4" r="4"/><circle class="st2" cx="7.7" cy="833.6" r="4"/><circle class="st2" cx="7.7" cy="756.4" r="4"/><circle class="st2" cx="94" cy="764.4" r="4"/><circle class="st2" cx="876.5" cy="554.8" r="4"/><circle class="st2" cx="1029" cy="625" r="4"/><circle class="st2" cx="1083.2" cy="568.8" r="4"/><circle class="st2" cx="1117.3" cy="744.4" r="4"/><circle class="st2" cx="1141.3" cy="843.7" r="4"/><circle class="st2" cx="119.1" cy="640" r="4"/><circle class="st2" cx="127.1" cy="704.2" r="4"/><circle class="st2" cx="461.2" cy="590.9" r="4"/><circle class="st2" cx="566.5" cy="847.6" r="4"/><circle class="st2" cx="202.4" cy="169.5" r="4"/><circle class="st2" cx="254.5" cy="724.3" r="4"/><circle class="st2" cx="970.1" cy="786.7" r="4"/><circle class="st2" cx="202.4" cy="489.6" r="4"/><circle class="st2" cx="651.8" cy="758.4" r="4"/><circle class="st2" cx="108.1" cy="305" r="4"/><circle class="st2" cx="108.1" cy="625" r="4"/><circle class="st2" cx="120.1" cy="320" r="4"/><circle class="st2" cx="919.6" cy="39.1" r="4"/><circle class="st2" cx="919.6" cy="359.1" r="4"/><circle class="st2" cx="828.3" cy="25.1" r="4"/><circle class="st2" cx="828.3" cy="345.1" r="4"/><circle class="st2" cx="838.4" cy="182.6" r="3"/><circle class="st2" cx="838.4" cy="502.6" r="3"/><circle class="st2" cx="507.3" cy="161.5" r="3"/><circle class="st2" cx="507.3" cy="481.5" r="3"/><circle class="st2" cx="620.7" cy="120.4" r="3"/><circle class="st2" cx="620.7" cy="440.4" r="3"/><circle class="st2" cx="112.1" cy="161.5" r="3"/><circle class="st2" cx="309.4" cy="652.2" r="3"/><circle class="st2" cx="1025.6" cy="858.4" r="3"/><circle class="st2" cx="112.1" cy="481.5" r="3"/><circle class="st2" cx="44.9" cy="144.5" r="3"/><circle class="st2" cx="44.9" cy="464.5" r="3"/><circle class="st2" cx="50.9" cy="103.3" r="3"/><circle class="st2" cx="50.9" cy="423.3" r="3"/><circle class="st2" cx="44.9" cy="331.1" r="3"/><circle class="st2" cx="44.9" cy="651.1" r="3"/><circle class="st2" cx="669.8" cy="242.8" r="3"/><circle class="st2" cx="669.8" cy="562.8" r="3"/><circle class="st2" cx="535.4" cy="637" r="3"/><circle class="st2" cx="41.8" cy="235.7" r="3"/><circle class="st2" cx="41.8" cy="555.8" r="3"/><circle class="st2" cx="588.6" cy="117.4" r="3"/><circle class="st2" cx="588.6" cy="437.4" r="3"/><circle class="st2" cx="1425.2" cy="200.6" r="4"/><circle class="st2" cx="1425.2" cy="520.7" r="4"/><circle class="st2" cx="1434.3" cy="192.6" r="2"/><circle class="st2" cx="1434.3" cy="512.6" r="2"/><circle class="st2" cx="1397.2" cy="140.4" r="2"/><circle class="st2" cx="1397.2" cy="460.5" r="2"/><circle class="st2" cx="1399.2" cy="146.5" r="2"/><circle class="st2" cx="1399.2" cy="466.5" r="2"/><circle class="st2" cx="1343" cy="142.5" r="2"/><circle class="st2" cx="1343" cy="462.5" r="2"/><circle class="st2" cx="1320.9" cy="144.5" r="2"/><circle class="st2" cx="1320.9" cy="464.5" r="2"/><circle class="st2" cx="1299.8" cy="238.8" r="2"/><circle class="st2" cx="1299.8" cy="558.8" r="2"/><circle class="st2" cx="1219.6" cy="221.7" r="2"/><circle class="st2" cx="1219.6" cy="541.7" r="2"/><circle class="st2" cx="1277.8" cy="816.6" r="2"/><circle class="st2" cx="1193.5" cy="203.6" r="2"/><circle class="st2" cx="1193.5" cy="523.7" r="2"/><circle class="st2" cx="1251.7" cy="798.5" r="2"/><circle class="st2" cx="1296.8" cy="164.5" r="2"/><circle class="st2" cx="1296.8" cy="484.5" r="2"/><circle class="st2" cx="1315.9" cy="172.5" r="3"/><circle class="st2" cx="1315.9" cy="492.6" r="3"/><circle class="st2" cx="1374.1" cy="767.4" r="3"/><circle class="st2" cx="1083.2" cy="132.4" r="2"/><circle class="st2" cx="1083.2" cy="452.4" r="2"/><circle class="st2" cx="1009.9" cy="169.5" r="2"/><circle class="st2" cx="1009.9" cy="489.6" r="2"/><circle class="st2" cx="1281.8" cy="37.1" r="3"/><circle class="st2" cx="1281.8" cy="357.1" r="3"/><circle class="st2" cx="1310.9" cy="57.2" r="2"/><circle class="st2" cx="1310.9" cy="377.2" r="2"/><circle class="st2" cx="1157.4" cy="53.2" r="2"/><circle class="st2" cx="1157.4" cy="373.2" r="2"/><circle class="st2" cx="978.8" cy="659.1" r="2"/><circle class="st2" cx="913.6" cy="734.3" r="2"/><circle class="st2" cx="847.4" cy="695.2" r="2"/><circle class="st2" cx="727" cy="720.3" r="2"/><circle class="st2" cx="607.6" cy="716.3" r="2"/><circle class="st2" cx="1056.1" cy="65.2" r="2"/><circle class="st2" cx="1056.1" cy="385.2" r="2"/><circle class="st2" cx="1319.9" cy="59.2" r="2"/><circle class="st2" cx="1319.9" cy="379.2" r="2"/><circle class="st2" cx="1362" cy="47.1" r="2"/><circle class="st2" cx="1362" cy="367.2" r="2"/><circle class="st2" cx="1359" cy="40.1" r="3"/><circle class="st2" cx="1359" cy="360.1" r="3"/><circle class="st2" cx="1409.2" cy="63.2" r="4"/><circle class="st2" cx="1409.2" cy="383.2" r="4"/><circle class="st2" cx="1281.8" cy="4" r="3"/><circle class="st2" cx="1281.8" cy="324" r="3"/><circle class="st2" cx="1340" cy="598.9" r="3"/><circle class="st2" cx="1202.5" cy="631" r="3"/><circle class="st2" cx="1341" cy="885.8" r="3"/><circle class="st2" cx="779.2" cy="12" r="2"/><circle class="st2" cx="779.2" cy="332.1" r="2"/></g></svg>