<svg width="22" height="24" fill="none" xmlns="http://www.w3.org/2000/svg"><path fill-rule="evenodd" clip-rule="evenodd" d="M11 0c.527 0 .954.43.954.96v1.98A7.62 7.62 0 0116.4 5.13a7.704 7.704 0 012.236 5.432v4.8c0 .51.201.998.56 1.358a1.9 1.9 0 001.35.562c.527 0 .954.43.954.96s-.427.96-.954.96H1.454a.957.957 0 01-.955-.96c0-.53.427-.96.955-.96.506 0 .991-.202 1.35-.562a1.93 1.93 0 00.559-1.358v-4.8c0-2.038.804-3.991 2.236-5.432a7.62 7.62 0 014.446-2.19V.96c0-.53.427-.96.954-.96zM4.761 17.282H17.24a3.858 3.858 0 01-.512-1.92v-4.8a5.778 5.778 0 00-1.677-4.074A5.71 5.71 0 0011 4.801a5.71 5.71 0 00-4.05 1.687 5.778 5.778 0 00-1.677 4.074v4.8c0 .68-.18 1.342-.512 1.92zm4.109 3.97a.951.951 0 011.304.35.958.958 0 00.826.478.95.95 0 00.826-.479.951.951 0 011.304-.348.963.963 0 01.347 1.312 2.851 2.851 0 01-4.954 0 .963.963 0 01.347-1.312z" fill="#fff"/></svg>