<svg width="543" height="457" fill="none" xmlns="http://www.w3.org/2000/svg"><g clip-path="url(#clip0_1972_3659)"><ellipse cx="266" cy="248.092" rx="187" ry="189.211" fill="url(#paint0_linear_1972_3659)"/><path d="M230.413 157.033H8.253c-4.558 0-8.253 3.678-8.253 8.216v151.355c0 4.538 3.695 8.216 8.253 8.216h222.16c4.558 0 8.253-3.678 8.253-8.216V165.249c0-4.538-3.695-8.216-8.253-8.216z" fill="#9EB2E2"/><path d="M228.826 162.673H10.766c-2.369 0-4.288 1.91-4.288 4.267v147.502c0 2.357 1.92 4.268 4.287 4.268h218.061c2.368 0 4.288-1.911 4.288-4.268V166.94c0-2.357-1.92-4.267-4.288-4.267z" fill="#fff"/><path d="M98.077 215.312c-26.441 0-60.437 9.833-69.88 43.24-9.443 33.407-2.002 59.181-2.002 59.181h149.202s-3.664-33.614-13.107-53.278c-9.443-19.665-24.552-49.143-64.213-49.143z" fill="#4A7AEB" stroke="#4A7AEB" stroke-width="3" stroke-miterlimit="10"/><path d="M115.618 212.854c17.345-3.3 27.734-25.097 23.205-48.685-4.529-23.588-22.261-40.035-39.606-36.736-17.345 3.3-27.735 25.097-23.206 48.686 4.53 23.588 22.262 40.035 39.607 36.735z" fill="#F6CAB4"/><path d="M111.297 208.733s5.666 24.439 0 28.199c-5.666 3.76-27.498-7.181-30.747-16.75l.529-37.769 30.218 26.32zm11.974 112.797s15.411-8.46 21.077-14.1c5.666-5.64 28.329-3.76 30.218-1.88 1.889 1.88-3.097 13.16-10.047 15.98h-41.248z" fill="#F6CAB4"/><path d="M106.575 138.234s-13.22-1.88-15.109 3.759c-1.888 5.64 5.666 11.28 1.889 18.8-3.777 7.52-11.332 9.4-11.332 18.8 0 5.64 11.332 15.039 11.332 20.679 0 5.64-3.777 15.04-11.332 18.8-7.554 3.76 7.555 13.16 7.555 13.16s-13.22 7.519-20.775 3.76c-7.555-3.76-13.22-13.16-18.886-9.4-5.666 3.76-20.436-17.052-18.887-26.32 1.889-11.279 13.22-15.039 11.332-22.559-.642-2.576-5.666-13.028-1.889-24.44 5.666-16.919 9.444-16.919 20.775-24.439 11.332-7.52 9.443-15.04 26.441-16.92 16.035-1.767 32.107 7.52 32.107 7.52s9.443-3.76 16.997 0c7.555 3.76 10.331 7.839 13.221 15.04 3.777 9.399 5.93 12.37 3.777 18.799-3.777 11.28 7.555 18.8 7.555 24.44 0 16.919-18.887 22.559-16.998 28.199 1.889 5.64 7.309 12.22 5.666 18.8-1.889 7.52-13.221 11.28-20.775 9.4-7.555-1.88-13.22-7.52-16.998-13.16-1.038-1.561-4.778-8.009-4.778-8.009s10.576 1.26 19.887-10.791c9.311-12.05 5.666-31.959 5.666-35.719 0-3.76 2.342-9.663 0-13.16-3.777-5.64-9.443-7.52-11.332-13.16-1.888-5.639-13.22-3.759-15.109-1.879z" fill="#964E00"/><path d="M250.111 141.11h-65.12a11.359 11.359 0 00-8.012 3.304 11.251 11.251 0 00-3.32 7.976v39.893a10.562 10.562 0 003.121 7.472 10.66 10.66 0 007.512 3.093h2.682s-2.795 8.968-5.76 17.108c-.378 1.053 0 1.88 1.322.62 10.255-9.776 19.604-17.728 19.604-17.728h47.971c3.006 0 5.888-1.188 8.013-3.303a11.257 11.257 0 003.319-7.977v-39.122a11.24 11.24 0 00-3.299-8.012 11.357 11.357 0 00-8.033-3.324z" fill="#98A5C5"/><path d="M217.06 0h97.265c4.508 0 8.831 1.783 12.019 4.956a16.883 16.883 0 014.978 11.964v59.614a15.79 15.79 0 01-4.651 11.186 15.938 15.938 0 01-11.232 4.643h-4.023l11.332 24.251c1.889 3.76 0 3.76-1.889 2.237l-32.106-26.488h-71.768a17.036 17.036 0 01-12.019-4.956 16.88 16.88 0 01-4.979-11.964V16.92c0-2.228.442-4.435 1.301-6.492a16.922 16.922 0 013.704-5.499 17.01 17.01 0 015.54-3.663A17.068 17.068 0 01217.06 0z" fill="#7CA2FB"/><path d="M409.7 58.335s47.216-3.76 66.102 50.759c18.887 54.519 26.441 73.318 43.439 93.998 16.998 20.68 39.661 110.918 7.554 169.197-32.106 58.278-196.417-16.92-211.526-52.639-15.109-35.72-7.555-109.038 9.443-163.557 16.998-54.519 28.33-110.918 84.988-97.758z" fill="#1C1A18"/><path d="M231.886 445.138h156.095l-8.725-8.686h-70.597l-76.773 8.686z" fill="#9EB2E2"/><path d="M436.816 155.96c10.814-35.252-1.05-70.1-26.499-77.835-25.448-7.735-54.845 14.572-65.659 49.824-10.813 35.252 1.051 70.1 26.499 77.835 25.449 7.735 54.845-14.572 65.659-49.824z" fill="#F6CAB4"/><path d="M404.979 68.675c-54.77-13.16-71.768 22.56-73.657 50.759l67.991 9.4 9.443-18.8v22.56l33.996 16.92s11.803-68.92-37.773-80.839z" fill="#1C1A18"/><path d="M405.923 210.612c26.441-1.88 77.434 7.52 101.986 46.999 24.552 39.479 35.884 131.597 15.109 167.317-20.775 35.719-118.983 31.959-118.983 31.959l7.554-31.959-67.991 11.279a101.473 101.473 0 000-45.119 51.59 51.59 0 01-14.118 16.844 51.893 51.893 0 01-19.877 9.476c-24.552 5.64-32.107-33.84-32.107-33.84l5.666-20.679s16.998 3.76 28.33-22.56c11.332-26.319 7.554-71.438 32.106-99.638 24.553-28.199 62.325-30.079 62.325-30.079z" fill="#fff"/><path d="M406.565 446.171a47.661 47.661 0 01-26.138.376c-15.109-3.76-41.55 0-43.439-3.76-1.888-3.76 9.443-24.439 33.996-24.439 24.552 0 21.53 6.73 35.581 7.407a16.771 16.771 0 005.968-1.767l-5.968 22.183z" fill="#F6CAB4"/><path d="M313.116 444.668s-138.607.827-184.821.94a9.93 9.93 0 01-6.658-1.956 9.847 9.847 0 01-3.73-5.827c-2.833-11.017-37.772-140.471-37.772-140.471 0-1.815.724-3.556 2.013-4.839a6.892 6.892 0 014.861-2.004h188.334c3.778 0 5.874 2.839 6.875 6.843 8.877 35.268 37.773 140.471 37.773 140.471a6.828 6.828 0 01-2.014 4.838 6.888 6.888 0 01-4.861 2.005z" fill="#9EB2E2"/><path d="M427.643 170.193v45.119s-9.444 17.428-30.219 18.8c-14.164.94-15.109-20.68-15.109-20.68v-11.279l45.328-31.96z" fill="#F6CAB4"/><path d="M434.366 156.431s6.856-5.47 10.274.602c3.419 6.072-3.777 16.036-7.554 18.179-6.12 3.403-11.71-2.256-11.71-2.256l8.99-16.525z" fill="#F6CAB4"/><path d="M344.543 392.028s-1.889-56.399-3.777-73.318c-1.889-16.92 1.888-43.239 1.888-43.239m69.879 148.517l3.778-11.279s45.327-11.28 56.659-26.32c11.331-15.04-7.555-78.958-7.555-78.958" stroke="#BDC4CB" stroke-width=".25" stroke-miterlimit="10"/><path d="M305.826 29.196h-81.211a2.826 2.826 0 00-2.833 2.82 2.826 2.826 0 002.833 2.82h81.211a2.827 2.827 0 002.833-2.82 2.827 2.827 0 00-2.833-2.82zm0 13.159h-81.211a2.826 2.826 0 00-2.833 2.82 2.826 2.826 0 002.833 2.82h81.211a2.827 2.827 0 002.833-2.82 2.827 2.827 0 00-2.833-2.82zm0 13.161h-81.211a2.826 2.826 0 00-2.833 2.82 2.826 2.826 0 002.833 2.82h81.211a2.827 2.827 0 002.833-2.82 2.827 2.827 0 00-2.833-2.82zm-61.777 105.277h-52.542a1.827 1.827 0 00-1.832 1.824c0 1.007.82 1.823 1.832 1.823h52.542a1.827 1.827 0 001.832-1.823c0-1.008-.82-1.824-1.832-1.824zm0 8.517h-52.542a1.827 1.827 0 00-1.832 1.823c0 1.007.82 1.824 1.832 1.824h52.542a1.828 1.828 0 001.832-1.824c0-1.007-.82-1.823-1.832-1.823zm0 8.515h-52.542a1.828 1.828 0 00-1.832 1.824c0 1.007.82 1.823 1.832 1.823h52.542a1.827 1.827 0 001.832-1.823c0-1.007-.82-1.824-1.832-1.824z" fill="#fff"/><path d="M67.858 270.771s-5.76 35.719 1.89 46.999m66.101-65.798s6.95 24.439 8.197 38.539" stroke="#4270CC" stroke-width=".5" stroke-miterlimit="10"/><path d="M123.573 192.753s-7.554 9.4-20.775 1.88l20.775-1.88zM358 175s8.952 16.92 28.329 7.52L358 175z" fill="#fff"/><path d="M97.132 163.124a10.002 10.002 0 00-4.79.905 9.95 9.95 0 00-3.784 3.062c.85.865 4.211-.188 7.158-1.128v.282a2.955 2.955 0 00.23 2.438 2.984 2.984 0 003.25 1.424 2.98 2.98 0 002.318-2.678c.145-.747.06-1.52-.246-2.218 1.247.508 2.323 1.278 3.173.526.85-.752-1.227-2.538-7.309-2.613zm26.8-1.842a10.03 10.03 0 00-4.645 1.496 9.976 9.976 0 00-3.382 3.505c.945.733 4.155-.715 6.969-2.012v.301a2.955 2.955 0 00.557 2.366c.255.333.578.608.948.808a2.991 2.991 0 004.193-1.499c.157-.388.23-.805.214-1.224a3.756 3.756 0 00-.529-2.181c1.303.358 2.493.978 3.229.132.737-.846-1.567-2.369-7.554-1.692z" fill="#47321D"/><path d="M401.485 137.387c9.084.545 12.37 6.543 12.37 6.543-1.397 1.109-6.326-.752-10.633-2.369.009.131.009.263 0 .394a4.449 4.449 0 01-.758 3.524 4.51 4.51 0 01-6.583.765 4.457 4.457 0 01-1.554-3.254 4.794 4.794 0 01.68-3.102c-1.889.582-3.777 1.541-4.873.394-1.095-1.146 2.248-3.44 11.351-2.895zm-42.702-7.989c2.329.151 4.584.877 6.562 2.111a14.05 14.05 0 014.77 4.957c-1.341 1.053-5.874-1.015-9.84-2.838.008.137.008.276 0 .413a4.182 4.182 0 01-2.097 4.532 4.23 4.23 0 01-3.462.266 4.22 4.22 0 01-2.486-2.413 4.18 4.18 0 01-.284-1.746 5.037 5.037 0 01.718-3.064c-1.889.489-3.494 1.373-4.552.188-1.246-1.485 2.191-3.346 10.671-2.406z" fill="#1C1A18"/><path d="M104.46 159.666s-9.31-1.504-13.315-.47c-4.004 1.034-3.777-.602-1.586-1.88 2.19-1.279 13.862-2.82 15.449-.865a2.133 2.133 0 01.125 2.585 2.155 2.155 0 01-.673.63zm13.806.018s8.593-3.891 12.729-3.929c4.136-.038 3.438-1.542 1.02-2.294-2.417-.752-14.108.884-15.109 3.178a2.159 2.159 0 00-.04 1.841 2.163 2.163 0 001.4 1.204z" fill="#964E00"/><path d="M112.373 176.246a8.272 8.272 0 014.174 4.23c1.662 3.384-2.549 3.346-2.549 3.346" stroke="#C6A291" stroke-width=".5" stroke-miterlimit="10"/><path opacity=".7" d="M93.77 181.473c3.182 0 5.76-1.397 5.76-3.121 0-1.723-2.578-3.121-5.76-3.121-3.18 0-5.76 1.398-5.76 3.121 0 1.724 2.58 3.121 5.76 3.121zm313.698-20.647c.252-2.678-3.551-5.222-8.494-5.683-4.943-.46-9.155 1.337-9.407 4.014-.252 2.677 3.551 5.221 8.495 5.682 4.943.461 9.155-1.336 9.406-4.013zm-43.751-8.077c.693-2.599-2.636-5.734-7.435-7.001-4.799-1.268-9.251-.188-9.943 2.411-.693 2.599 2.635 5.734 7.434 7.001 4.799 1.268 9.251.188 9.944-2.411zm-235.742 25.51c2.811-.299 4.94-1.931 4.756-3.645-.184-1.714-2.612-2.861-5.422-2.562-2.811.299-4.94 1.931-4.756 3.645.184 1.714 2.611 2.861 5.422 2.562z" fill="#EAB7A0"/><path d="M370.039 152.333s-4.721 2.82-4.721 6.58a6.932 6.932 0 001.151 3.309 6.988 6.988 0 002.626 2.331" stroke="#C6A291" stroke-width=".5" stroke-miterlimit="10"/><path fill-rule="evenodd" clip-rule="evenodd" d="M202.038 359.322c-.299-.48-.42-1.08-.421-1.679-.003-1.799 1.368-3.297 3.099-3.295 1.732.002 3.107 1.503 3.111 3.302.003 1.798-1.308 3.296-3.099 3.294h-.299c.12.12.18.24.299.36 3.891 5.88-8.271 16.3-13.703 17.014l.358-.18c3.4-1.795 10.141-5.265 9.413-12.042-.669-7.016-9.082-3.667-10.215-3.189 2.623-1.915 7.813-4.608 11.457-3.585z" fill="url(#paint1_linear_1972_3659)"/><path fill-rule="evenodd" clip-rule="evenodd" d="M179.014 359.319c.298-.479.416-1.079.415-1.678-.003-1.799-1.379-3.3-3.11-3.302-1.732-.002-3.162 1.496-3.159 3.295.003 1.799 1.379 3.299 3.111 3.301h.298c-.119.12-.179.24-.298.36-3.871 5.872 8.328 16.318 13.762 17.043l-.358-.18c-3.407-1.802-10.16-5.287-9.455-12.062.704-7.015 9.129-3.648 10.264-3.167-2.69-1.922-7.829-4.625-11.47-3.61z" fill="url(#paint2_linear_1972_3659)"/></g><defs><linearGradient id="paint0_linear_1972_3659" x1="121.671" y1="72.138" x2="296.245" y2="487.222" gradientUnits="userSpaceOnUse"><stop stop-color="#FDC468"/><stop offset="1" stop-color="#F3B044"/></linearGradient><linearGradient id="paint1_linear_1972_3659" x1="192.536" y1="355.175" x2="205.955" y2="378.422" gradientUnits="userSpaceOnUse"><stop stop-color="#FDC468"/><stop offset="1" stop-color="#F3B044"/></linearGradient><linearGradient id="paint2_linear_1972_3659" x1="175.131" y1="355.178" x2="188.527" y2="378.465" gradientUnits="userSpaceOnUse"><stop stop-color="#5785F2"/><stop offset="1" stop-color="#396BE3"/></linearGradient><clipPath id="clip0_1972_3659"><path fill="#fff" d="M0 0h543v457H0z"/></clipPath></defs></svg>