<svg width="498" height="480" fill="none" xmlns="http://www.w3.org/2000/svg"><circle cx="310" cy="257" r="187" fill="#79A0FF"/><g clip-path="url(#clip0_1942_2557)" fill="#FFB254"><path d="M336.737 278.574a46.091 46.091 0 01-9.708-15.282 46.091 46.091 0 0111.499-50.228 46.166 46.166 0 0133.277-12.444 46.137 46.137 0 0132.252 14.877l-67.32 63.077z"/><path d="M404.876 213.669a48.276 48.276 0 00-33.222-14.796 48.314 48.314 0 00-34.132 12.582 48.251 48.251 0 00-15.662 32.817 48.217 48.217 0 0011.699 34.418l-19.317 19.524 15.308-20.895-6.902 1.24 3.012-4.372-19.239 7.469 14.003-13.866-27.01 3.263 23.942-13.302-15.389.307 14.503-9.871-7.526-3.238 9.439-3.431-27.067-11.149 29.079-1.212-6.934-6.995 6.295-1.601-3.783-6.766 12.122 1.039-13.433-26.466 22.602 15.89-.771-11.138 10.932 6.493 1.897-10.786 6.696 8.086.241-31.489 11.627 29.501 13.773-10.716 1.14 12.591 14.217-21.133.227 27.248 11.483-7.557-6.378 11.411 17.647-11.701-15.119 18.601z"/></g><path d="M360.524 256.506l-.03.122-.115.049-.098-.23.098.23h-.001l-.001.001-.006.002-.024.01-.093.04-.361.158a83.259 83.259 0 00-5.668 2.796c-3.379 1.835-7.313 4.31-9.63 6.897l-.046.051-.066.021h0-.001l-.004.001-.016.006a1.057 1.057 0 00-.066.021l-.105.035a23.404 23.404 0 00-1.117.42 29.5 29.5 0 00-3.223 1.547c-2.542 1.414-5.608 3.615-7.747 6.767-.543.8-1.048 1.53-1.512 2.199l-.057.082c-.442.637-.845 1.218-1.207 1.755-.758 1.121-1.328 2.036-1.694 2.842-.365.803-.52 1.482-.462 2.135.057.653.329 1.308.869 2.059a.452.452 0 00.217.142c.122.046.288.081.502.099.428.037 1.011.006 1.737-.092 1.45-.196 3.424-.65 5.778-1.301 4.703-1.299 10.888-3.373 17.357-5.692 12.938-4.64 26.995-10.257 32.58-12.618 11.158-4.717 19.214-10.986 21.297-20.355.18-.812.356-1.643.534-2.486 1.898-8.984 4.116-19.479 16.23-25.562 6.575-3.302 22-9.659 35.77-15.187a2664.647 2664.647 0 0123.796-9.414l1.563-.609.331-.129c-2.504-7.987-7.203-19.02-17.348-35.732l-.247.146-1.312.771a3197.677 3197.677 0 01-20.179 11.756c-11.792 6.809-25.235 14.448-31.806 17.747-5.11 2.566-9.569 4.168-13.555 5.599-1.146.412-2.253.81-3.325 1.212-4.803 1.803-8.912 3.704-12.774 7.402-3.833 3.67-4.88 8.34-5.557 13.277-.105.769-.201 1.545-.298 2.324-.522 4.204-1.056 8.512-3.093 12.374-1.971 3.738-4.727 7.72-7.394 11.574-.574.83-1.145 1.654-1.703 2.469-1.576 2.302-3.05 4.529-4.235 6.605-1.186 2.078-2.073 3.99-2.483 5.664z" fill="#F6CAB4" stroke="#D2A58E" stroke-width=".5"/><path d="M399.749 224.65s-14.245 23.352-23.276 34.988c-9.032 11.636-20.279 7.178-15.306-4.904m42.54-11.32a9.497 9.497 0 01-.132 5.409 9.52 9.52 0 01-3.063 4.463c-5.024 4.125-46.288 26.183-46.288 26.183" stroke="#D2A58E" stroke-width=".5" stroke-miterlimit="10"/><path opacity=".2" d="M192.786 480.001c106.473 0 192.786-8.283 192.786-18.5s-86.313-18.5-192.786-18.5S0 451.284 0 461.501s86.313 18.5 192.786 18.5z" fill="#000"/><path d="M228.951 387.436v19.305c0 2.97 16.387 13.365 20.856 13.365 4.47 0 16.387-1.485 16.387-1.485l-4.469-37.125-32.774 5.94z" fill="#E1AE94"/><path d="M228.206 406.741s-2.979 17.82-2.979 23.76c0 5.94 1.49 10.395 7.449 13.365 5.958 2.97 19.366 1.485 26.815 2.97 7.448 1.484 19.441 7.603 31.284 8.909 13.408 1.485 22.346 1.485 26.815-2.97a14.959 14.959 0 004.314-6.803c.788-2.618.841-5.4.155-8.046-1.489-7.425-13.407-7.425-23.835-16.335-3.159-2.688-7.062-5.525-10.428-8.91-7.777-7.841-8.939-16.335-17.877-16.335-4.469 0-8.939 0-8.939 1.485s5.959 11.88 4.47 14.85c-1.49 2.97-17.877 1.485-23.836-1.485a62.308 62.308 0 00-13.408-4.455z" fill="#B3C4EB"/><path d="M193.942 342.887s8.939 29.7 14.898 40.095 11.917 14.849 14.897 14.849c4.469 0 23.836-11.879 23.836-11.879l-16.387-59.4-37.244 16.335z" fill="#F2A444"/><path d="M206.605 168.402s6.704 8.167 3.725 21.532c-2.98 13.365-11.918 14.85-11.918 22.275 0 7.425 2.979 11.88 1.49 13.365-1.49 1.485-7.449 1.485-8.939 2.97-1.489 1.485 0 7.425-2.979 7.425h-2.98s2.98 1.485 1.49 2.97-1.49 0-5.959 1.485c-4.469 1.485-16.387-46.035-16.387-46.035l42.457-25.987zm49.161 221.262s4.469 11.879 2.98 23.759c-1.49 11.88 0 28.215 0 28.215l53.63-7.425 2.979-7.425s-10.428 0-20.856-16.335a139.367 139.367 0 01-14.897-31.184l-23.836 10.395z" fill="#F6CAB4"/><path d="M257.846 420.053c.562-2.993 1.574-10.102 1.124-14.592-.45-4.489-1.686-8.605-2.248-10.102" stroke="#D4A994" stroke-width=".5"/><path d="M43.48 366.646s-7.449 83.158 44.692 92.068c52.14 8.91 77.466-31.184 90.873-59.399 13.408-28.214 38.733-98.008 38.733-98.008s5.959 43.064 14.898 63.854c8.938 20.789 16.387 31.184 19.366 31.184 2.98 0 35.754-8.91 35.754-11.88 0-2.97-19.367-141.072-72.997-144.042-53.63-2.97-96.833 105.433-96.833 105.433l-74.486 20.79z" fill="#FFB254"/><path d="M258.001 420.106s-2.98 17.82-2.98 23.76c0 5.94 1.49 10.395 7.449 13.365 5.959 2.97 19.367 1.485 26.815 2.97 7.449 1.485 19.441 7.603 31.285 8.91 13.407 1.485 22.345 1.485 26.815-2.97a14.965 14.965 0 004.313-6.804c.788-2.617.842-5.4.156-8.046-1.49-7.425-13.408-7.425-23.836-16.335-3.158-2.688-7.061-5.524-10.428-8.91-7.776-7.841-8.938-16.335-17.877-16.335-4.469 0-8.938 0-8.938 1.485s5.959 11.88 4.469 14.85c-1.49 2.97-17.877 1.485-23.836-1.485a62.373 62.373 0 00-13.407-4.455z" fill="#E8EFFF"/><path d="M161.913 279.775s52.141 26.729 75.977 34.154c21.69 6.757 39.671 17.36 49.906 27.472 1.013.995 4.469-1.485 8.938 1.485 8.938 5.94 11.918 26.73-4.469 34.155-5.17 2.346-8.939 2.97-10.428 0-1.49-2.97 2.979-4.455 2.979-4.455s-4.469 2.97-5.959 0c-1.49-2.97 2.98-5.94 2.98-5.94s-5.959 1.485-5.959-1.485a6.49 6.49 0 011.489-4.455s-4.469-1.485-4.469-2.97 2.98-2.97 2.98-2.97a50.788 50.788 0 00-22.346-5.94c-11.918 0-64.059-8.91-77.466-14.849-13.408-5.94-32.774-23.76-32.774-23.76s1.489-28.215 18.621-30.442z" fill="#F6CAB4"/><path d="M281.837 366.646a25.14 25.14 0 0010.428-5.94c2.979-2.97 5.959-10.394 5.959-10.394m-20.857 10.394a17.783 17.783 0 008.939-2.97c4.469-2.97 8.938-11.88 8.938-11.88m-19.723 8.842c2.229-.003 4.442-.817 6.404-2.357 3.3-2.574 6.994-10.734 6.994-10.734m-4.103 30.979a21.817 21.817 0 0011.918-7.425 35.909 35.909 0 004.469-7.425" stroke="#D5A994" stroke-width=".5" stroke-miterlimit="10"/><path d="M58.377 203.299c20.678-21.889 34.264-17.82 50.651-31.185 16.387-13.365 25.325-44.549 59.589-43.064 16.387.713 32.774 17.819 40.223 28.214a41.252 41.252 0 0110.428 5.94c5.959 4.455 10.428 19.305 4.469 28.215-5.959 8.91-11.918 8.91-11.918 8.91a36.534 36.534 0 00-10.86-5.02h.134s3.278-5.405 3.278-9.86v-5.94s-3.68 12.296-6.317 15.058h.149l-1.281-.238c-5.959-.98-7.449-4.455-7.449-4.455s-13.407 11.88-11.917 22.275c1.281 8.91 7.448 29.7 4.469 41.579-2.98 11.88-37.243 25.245-37.243 25.245s-35.754-68.309-55.12-59.399c-19.367 8.91-52.141 49.004-52.141 49.004s-2.98-40.035 20.856-65.279z" fill="#1C1A18"/><path d="M92.64 207.753c31.285 0 50.652 44.55 59.59 54.945 8.939 10.394 98.322 50.489 110.24 54.944 11.918 4.455-1.49 31.184-8.938 32.669-7.449 1.485-59.589-4.455-77.466-11.88-17.877-7.425-31.285-17.819-38.733-17.819-7.449 0-11.918 26.729-29.795 37.124-17.876 10.395-37.63 30.323-44.692 41.579-7.448 11.88-10.428 31.185-10.428 31.185s-31.284-32.67-26.815-93.554c4.47-60.884 16.655-84.643 37.243-111.373 14.898-19.305 26.816-17.82 29.795-17.82z" fill="#F3F6FC"/><path d="M121.087 432.405c27.837-11.674 55-65.102 65.101-90.357l15.715 3.368c-8.232 19.268-23.939 59.218-32.551 71.274-11.224 15.715-25.255 40.408-65.101 43.214-31.878 2.245-47.704-19.268-51.633-30.306 11.225 5.8 40.633 14.48 68.469 2.807z" fill="#F2A444"/><path d="M140.223 321.028c-13.318-3.386-37.154-10.811-49.072-7.841" stroke="#737881" stroke-width=".5" stroke-miterlimit="10" opacity=".2"/><path d="M240 90H46.903S39.771 61.984 65.59 55.49c6.229-1.569 14.015 4.706 14.015 4.706s-.156-37.647 20.244-45.49c20.4-7.844 26.473 6.274 26.473 6.274S138.78-4.118 163.696.588c24.915 4.706 21.801 37.647 21.801 37.647s17.129-1.569 23.358 3.137c14.015 10.651 9.344 31.373 9.344 31.373S240 71.176 240 90z" fill="#9DB2E2"/><path d="M208.942 96l3.838 8.44" stroke="#fff" stroke-opacity=".5" stroke-miterlimit="10"/><path d="M220.253 120.809l26.149 57.318" stroke="#fff" stroke-opacity=".5" stroke-miterlimit="10" stroke-dasharray="11.65 11.65"/><path d="M250.147 186.318l3.853 8.425M166.992 96l3.838 8.44" stroke="#fff" stroke-opacity=".5" stroke-miterlimit="10"/><path d="M178.303 120.809l26.149 57.318" stroke="#fff" stroke-opacity=".5" stroke-miterlimit="10" stroke-dasharray="11.65 11.65"/><path d="M208.196 186.318l3.854 8.425M125.041 96l3.838 8.44" stroke="#fff" stroke-opacity=".5" stroke-miterlimit="10"/><path d="M136.352 120.809l26.149 57.318" stroke="#fff" stroke-opacity=".5" stroke-miterlimit="10" stroke-dasharray="11.65 11.65"/><path d="M166.246 186.318l3.853 8.425M83.09 96l3.839 8.44" stroke="#fff" stroke-opacity=".5" stroke-miterlimit="10"/><path d="M94.402 120.809l26.149 57.318" stroke="#fff" stroke-opacity=".5" stroke-miterlimit="10" stroke-dasharray="11.65 11.65"/><path d="M124.296 186.318l3.853 8.425m63.702-89.486l3.838 8.439" stroke="#fff" stroke-opacity=".5" stroke-miterlimit="10"/><path d="M203.162 130.066l26.15 57.319" stroke="#fff" stroke-opacity=".5" stroke-miterlimit="10" stroke-dasharray="11.65 11.65"/><path d="M233.056 195.576l3.853 8.424m-87.008-98.743l3.838 8.439" stroke="#fff" stroke-opacity=".5" stroke-miterlimit="10"/><path d="M161.212 130.066l26.149 57.319" stroke="#fff" stroke-opacity=".5" stroke-miterlimit="10" stroke-dasharray="11.65 11.65"/><path d="M191.105 195.576l3.853 8.424m-87.008-98.743l3.838 8.439" stroke="#fff" stroke-opacity=".5" stroke-miterlimit="10"/><path d="M119.261 130.066l26.149 57.319" stroke="#fff" stroke-opacity=".5" stroke-miterlimit="10" stroke-dasharray="11.65 11.65"/><path d="M149.155 195.576l3.853 8.424M66 105.257l3.838 8.439" stroke="#fff" stroke-opacity=".5" stroke-miterlimit="10"/><path d="M77.311 130.066l26.149 57.319" stroke="#fff" stroke-opacity=".5" stroke-miterlimit="10" stroke-dasharray="11.65 11.65"/><path d="M107.205 195.576l3.853 8.424" stroke="#fff" stroke-opacity=".5" stroke-miterlimit="10"/><defs><clipPath id="clip0_1942_2557"><path fill="#fff" transform="rotate(-14.269 882.415 -993.128)" d="M0 0h141.404v118.338H0z"/></clipPath></defs></svg>