<svg version="1.1" id="Layer_1" xmlns="http://www.w3.org/2000/svg" x="0" y="0" viewBox="0 0 154 40" xml:space="preserve"><path d="M71.6 24.5V31h-5.1v-6.6l-6.9-11.6H65l4.3 7.2 4.3-7.2h5l-7 11.7zm20.8.7H82.2c.2.7.6 1.3 1.2 1.7.6.4 1.3.6 2.2.6.7 0 1.3-.1 1.8-.3s1-.5 1.5-.9l2.6 2.7c-1.4 1.5-3.4 2.3-6 2.3-1.6 0-3.1-.3-4.3-.9-1.2-.6-2.2-1.5-2.9-2.6s-1-2.4-1-3.8.3-2.6 1-3.7 1.6-2 2.8-2.6 2.5-.9 4-.9c1.4 0 2.7.3 3.8.9 1.1.6 2 1.4 2.7 2.5s1 2.4 1 3.9c-.1-.1-.1.3-.2 1.1zm-9.3-4.4c-.5.4-.8 1-1 1.8h5.8c-.1-.7-.5-1.3-1-1.8-.5-.4-1.1-.6-1.9-.6s-1.4.2-1.9.6zm26.7-9.1V31h-4.7v-1.4c-.9 1.1-2.3 1.6-4.1 1.6-1.3 0-2.5-.3-3.5-.9-1.1-.6-1.9-1.5-2.5-2.6s-1-2.3-1-3.8.3-2.7.9-3.8c.6-1.1 1.5-1.9 2.5-2.5s2.2-.9 3.5-.9c1.7 0 3 .5 3.9 1.5v-6.4h5v-.1zm-5.7 14.7c.6-.6.8-1.4.8-2.5 0-1-.3-1.9-.8-2.4s-1.3-.9-2.1-.9c-.9 0-1.6.3-2.1.9s-.9 1.4-.9 2.4c0 1.1.3 1.9.8 2.5s1.3.9 2.1.9c.9 0 1.6-.3 2.2-.9zm22.2-8.2c1.1 1 1.6 2.6 1.6 4.7V31H123v-7.3c0-1.9-.8-2.9-2.3-2.9-.8 0-1.5.3-2 .8-.5.6-.8 1.4-.8 2.5V31H113V16.9h4.7v1.5c.6-.6 1.2-1 2-1.3s1.6-.5 2.5-.5c1.7.1 3.1.6 4.1 1.6zm16.1.1c1.2 1.1 1.8 2.7 1.8 4.9V31h-4.6v-1.8c-.7 1.4-2.1 2.1-4.2 2.1-1.1 0-2-.2-2.8-.6s-1.4-.9-1.8-1.5c-.4-.7-.6-1.4-.6-2.2 0-1.3.5-2.4 1.5-3.1s2.6-1.1 4.7-1.1h2.8c-.1-1.5-1.1-2.2-3-2.2-.7 0-1.4.1-2.1.3s-1.3.5-1.8.9l-1.7-3.4c.8-.5 1.7-.9 2.8-1.2 1.1-.3 2.2-.4 3.4-.4 2.6-.1 4.4.4 5.6 1.5zm-4 9.4c.4-.3.7-.7.9-1.2v-1.2h-2.1c-1.4 0-2.2.5-2.2 1.4 0 .4.2.8.5 1 .3.3.8.4 1.4.4s1-.1 1.5-.4zm9.2-13.1c-.6-.5-.8-1.1-.8-1.9s.3-1.4.8-1.9c.6-.5 1.3-.8 2.2-.8s1.6.2 2.2.7c.6.5.8 1.1.8 1.8 0 .8-.3 1.4-.8 1.9s-1.3.8-2.2.8-1.6-.1-2.2-.6zm-.2 2.3h4.9V31h-4.9V16.9z" fill="#fff"/><path d="M48.3 8.3c-.5-.8-.7-1.8-.7-2.8 0-3 2.3-5.5 5.2-5.5S58 2.5 58 5.5 55.8 11 52.8 11h-.5c.2.2.3.4.5.6 6.5 9.8-13.9 27.2-23 28.4l.6-.3c5.7-3 17-8.8 15.8-20.1-1.1-11.7-15.2-6.1-17.1-5.3 4.4-3.2 13.1-7.7 19.2-6zm-38.5 0c.5-.8.7-1.8.7-2.8 0-3-2.3-5.5-5.2-5.5S0 2.5 0 5.5 2.3 11 5.2 11h.5c-.2.2-.3.4-.5.6-6.5 9.8 13.9 27.2 23 28.4l-.6-.3c-5.7-3-17-8.8-15.8-20.1C13 7.9 27.1 13.5 29 14.3c-4.5-3.2-13.1-7.7-19.2-6z" fill-rule="evenodd" clip-rule="evenodd" fill="#fff" id="Logo_Icon"/></svg>