<svg width="537" height="403" fill="none" xmlns="http://www.w3.org/2000/svg"><rect x="70" y="76" width="400" height="296" rx="24" fill="#E4EBFB"/><path d="M70 100c0-13.255 10.745-24 24-24h352c13.255 0 24 10.745 24 24v73.069H70V100z" fill="#5281F0"/><path d="M70 339.644h400V348c0 13.255-10.745 24-24 24H94c-13.255 0-24-10.745-24-24v-8.356z" fill="#001A58"/><rect x="164.611" y="146.704" width="211.976" height="154.591" rx="12" fill="#fff"/><ellipse cx="270" cy="180.259" rx="19.162" ry="19.174" fill="#F3B245"/><rect x="205" y="111" width="130" height="8" rx="4" fill="#fff"/><circle cx="134" cy="93" r="4" fill="#fff"/><circle cx="154" cy="93" r="4" fill="#fff"/><rect x="234.072" y="260.55" width="71.856" height="14.381" rx="4" fill="#5281F0"/><rect x="210.12" y="209.021" width="119.76" height="4.794" rx="2.397" fill="#7C8AAA" fill-opacity=".6"/><rect x="210.12" y="218.607" width="119.76" height="4.794" rx="2.397" fill="#7C8AAA" fill-opacity=".6"/><rect x="210.12" y="228.194" width="119.76" height="4.794" rx="2.397" fill="#7C8AAA" fill-opacity=".6"/><rect y="23" width="120" height="153" rx="16" fill="#F3B245"/><rect x="3.636" y="27.857" width="112.727" height="143.286" rx="12" fill="#fff"/><rect x="41.212" y="78.857" width="55.758" height="2.429" rx="1.214" fill="#D9D9D9"/><rect x="41.212" y="91" width="55.758" height="2.429" rx="1.214" fill="#D9D9D9"/><rect x="41.212" y="103.143" width="55.758" height="2.429" rx="1.214" fill="#D9D9D9"/><rect x="41.212" y="115.285" width="55.758" height="2.429" rx="1.214" fill="#D9D9D9"/><ellipse cx="26.667" cy="80.071" rx="4.848" ry="4.857" fill="#D9D9D9"/><ellipse cx="26.667" cy="92.214" rx="4.848" ry="4.857" fill="#F3B245"/><ellipse cx="26.667" cy="104.357" rx="4.848" ry="4.857" fill="#D9D9D9"/><ellipse cx="26.667" cy="116.5" rx="4.848" ry="4.857" fill="#D9D9D9"/><rect x="60.606" y="127.429" width="36.364" height="10.929" rx="2" fill="#5281F0"/><path d="M48.656 59.572v-11.2h.976l5.12 8.736h-.513l5.073-8.736h.976v11.2h-1.136v-9.424h.271l-4.672 8h-.56l-4.704-8h.304v9.424h-1.135zm18.369.096a7.266 7.266 0 01-2.4-.4c-.758-.277-1.344-.63-1.76-1.056l.464-.912c.394.384.922.71 1.584.976a5.882 5.882 0 002.112.384c.704 0 1.274-.085 1.712-.256.448-.181.773-.421.976-.72.213-.298.32-.63.32-.992 0-.437-.128-.79-.384-1.056-.246-.266-.571-.474-.976-.624a9.99 9.99 0 00-1.344-.416c-.491-.117-.982-.24-1.472-.368a6.705 6.705 0 01-1.36-.544 2.929 2.929 0 01-.992-.88c-.246-.373-.368-.858-.368-1.456 0-.554.144-1.061.432-1.52.298-.47.752-.842 1.36-1.12.608-.288 1.386-.432 2.336-.432.629 0 1.253.09 1.872.272.618.17 1.152.41 1.6.72l-.4.944a5.267 5.267 0 00-1.536-.704 5.743 5.743 0 00-1.552-.224c-.672 0-1.227.09-1.664.272-.438.182-.763.427-.976.736a1.78 1.78 0 00-.304 1.024c0 .438.122.79.368 1.056.256.267.586.475.992.624.416.15.869.283 1.36.4.49.118.976.246 1.456.384.49.139.938.32 1.344.544.416.214.746.502.992.864.256.363.384.838.384 1.424 0 .544-.15 1.05-.448 1.52-.299.459-.758.832-1.376 1.12-.608.278-1.392.416-2.352.416z" fill="#F3B245"/><rect x="417" width="120" height="153" rx="16" fill="#F3B245"/><rect x="420.636" y="4.857" width="112.727" height="143.286" rx="12" fill="#fff"/><rect x="458.212" y="59.5" width="55.758" height="2.429" rx="1.214" fill="#D9D9D9"/><rect x="458.212" y="71.644" width="55.758" height="2.429" rx="1.214" fill="#D9D9D9"/><rect x="458.212" y="83.786" width="55.758" height="2.429" rx="1.214" fill="#D9D9D9"/><rect x="458.212" y="95.929" width="55.758" height="2.429" rx="1.214" fill="#D9D9D9"/><ellipse cx="443.667" cy="60.715" rx="4.848" ry="4.857" fill="#F3B245"/><ellipse cx="443.667" cy="72.857" rx="4.848" ry="4.857" fill="#D9D9D9"/><ellipse cx="443.667" cy="85" rx="4.848" ry="4.857" fill="#D9D9D9"/><ellipse cx="443.667" cy="97.142" rx="4.848" ry="4.857" fill="#D9D9D9"/><rect x="477.606" y="108.071" width="36.364" height="10.929" rx="2" fill="#5281F0"/><path d="M462.637 25.372h1.168v11.2h-1.168v-11.2zm-7.008 11.2h-1.184v-11.2h1.184v11.2zm7.12-5.168h-7.248v-1.04h7.248v1.04zm2.919 5.168l5.12-11.2h1.168l5.12 11.2h-1.248l-4.704-10.512h.48L466.9 36.572h-1.232zm2.016-2.992l.352-.96h6.512l.352.96h-7.216zm11.245 2.992v-11.2h4.56c1.195 0 2.24.24 3.136.72a5.154 5.154 0 012.112 1.968c.501.843.752 1.814.752 2.912 0 1.099-.251 2.07-.752 2.912-.501.843-1.205 1.504-2.112 1.984-.896.47-1.941.704-3.136.704h-4.56zm1.184-1.024h3.312c.992 0 1.851-.192 2.576-.576a4.313 4.313 0 001.712-1.616c.405-.693.608-1.488.608-2.384 0-.906-.203-1.701-.608-2.384a4.203 4.203 0 00-1.712-1.6c-.725-.394-1.584-.592-2.576-.592h-3.312v9.152zm15.123 1.12a7.266 7.266 0 01-2.4-.4c-.758-.277-1.344-.63-1.76-1.056l.464-.912c.394.384.922.71 1.584.976a5.882 5.882 0 002.112.384c.704 0 1.274-.085 1.712-.256.448-.181.773-.421.976-.72.213-.298.32-.63.32-.992 0-.437-.128-.79-.384-1.056-.246-.266-.571-.474-.976-.624-.406-.16-.854-.298-1.344-.416-.491-.117-.982-.24-1.472-.368a6.698 6.698 0 01-1.36-.544 2.922 2.922 0 01-.992-.88c-.246-.373-.368-.858-.368-1.456 0-.554.144-1.061.432-1.52.298-.47.752-.842 1.36-1.12.608-.288 1.386-.432 2.336-.432.629 0 1.253.09 1.872.272.618.17 1.152.41 1.6.72l-.4.944a5.267 5.267 0 00-1.536-.704 5.749 5.749 0 00-1.552-.224c-.672 0-1.227.09-1.664.272-.438.182-.763.427-.976.736-.203.299-.304.64-.304 1.024 0 .438.122.79.368 1.056.256.267.586.475.992.624.416.15.869.283 1.36.4.49.118.976.246 1.456.384.49.139.938.32 1.344.544.416.214.746.502.992.864.256.363.384.838.384 1.424 0 .544-.15 1.05-.448 1.52-.299.459-.758.832-1.376 1.12-.608.278-1.392.416-2.352.416z" fill="#F3B245"/><rect x="97" y="250" width="120" height="153" rx="16" fill="#5281F0"/><rect x="100.636" y="254.857" width="112.727" height="143.286" rx="12" fill="#fff"/><rect x="138.212" y="309.5" width="55.758" height="2.429" rx="1.214" fill="#D9D9D9"/><rect x="138.212" y="321.644" width="55.758" height="2.429" rx="1.214" fill="#D9D9D9"/><rect x="138.212" y="333.786" width="55.758" height="2.429" rx="1.214" fill="#D9D9D9"/><rect x="138.212" y="345.929" width="55.758" height="2.429" rx="1.214" fill="#D9D9D9"/><ellipse cx="123.667" cy="310.715" rx="4.848" ry="4.857" fill="#D9D9D9"/><ellipse cx="123.667" cy="322.857" rx="4.848" ry="4.857" fill="#F3B245"/><ellipse cx="123.667" cy="335" rx="4.848" ry="4.857" fill="#D9D9D9"/><ellipse cx="123.667" cy="347.142" rx="4.848" ry="4.857" fill="#D9D9D9"/><rect x="157.606" y="358.071" width="36.364" height="10.929" rx="2" fill="#5281F0"/><path d="M143.769 286.572v-11.2h4.832c1.248 0 2.214.251 2.896.752.694.502 1.04 1.211 1.04 2.128 0 .608-.144 1.12-.432 1.536a2.58 2.58 0 01-1.152.944c-.48.214-1.008.32-1.584.32l.272-.384c.715 0 1.328.112 1.84.336.523.214.928.539 1.216.976.288.427.432.96.432 1.6 0 .95-.352 1.686-1.056 2.208-.693.523-1.744.784-3.152.784h-5.152zm1.184-.976h3.952c.982 0 1.734-.165 2.256-.496.523-.341.784-.88.784-1.616 0-.725-.261-1.253-.784-1.584-.522-.341-1.274-.512-2.256-.512h-4.08v-.976h3.696c.896 0 1.59-.17 2.08-.512.502-.341.752-.848.752-1.52 0-.682-.25-1.189-.752-1.52-.49-.341-1.184-.512-2.08-.512h-3.568v9.248zm10.879.976v-11.2h4.56c1.194 0 2.24.24 3.136.72a5.175 5.175 0 012.112 1.968c.501.843.752 1.814.752 2.912 0 1.099-.251 2.07-.752 2.912-.502.843-1.206 1.504-2.112 1.984-.896.47-1.942.704-3.136.704h-4.56zm1.184-1.024h3.312c.992 0 1.85-.192 2.576-.576a4.312 4.312 0 001.712-1.616c.405-.693.608-1.488.608-2.384 0-.906-.203-1.701-.608-2.384a4.214 4.214 0 00-1.712-1.6c-.726-.394-1.584-.592-2.576-.592h-3.312v9.152zm12.035 1.024v-11.2h1.184v11.2h-1.184z" fill="#F3B245"/><rect x="390" y="201" width="120" height="153" rx="16" fill="#F3B245"/><rect x="393.636" y="205.857" width="112.727" height="143.286" rx="12" fill="#fff"/><rect x="431.212" y="260.5" width="55.758" height="2.429" rx="1.214" fill="#D9D9D9"/><rect x="431.212" y="272.644" width="55.758" height="2.429" rx="1.214" fill="#D9D9D9"/><rect x="431.212" y="284.786" width="55.758" height="2.429" rx="1.214" fill="#D9D9D9"/><rect x="431.212" y="296.929" width="55.758" height="2.429" rx="1.214" fill="#D9D9D9"/><ellipse cx="416.667" cy="261.715" rx="4.848" ry="4.857" fill="#D9D9D9"/><ellipse cx="416.667" cy="273.857" rx="4.848" ry="4.857" fill="#D9D9D9"/><ellipse cx="416.667" cy="286" rx="4.848" ry="4.857" fill="#D9D9D9"/><ellipse cx="416.667" cy="298.142" rx="4.848" ry="4.857" fill="#F3B245"/><rect x="450.606" y="309.071" width="36.364" height="10.929" rx="2" fill="#5281F0"/><path d="M437.607 237.668a7.256 7.256 0 01-2.4-.4c-.757-.277-1.344-.629-1.76-1.056l.464-.912c.395.384.923.71 1.584.976a5.882 5.882 0 002.112.384c.704 0 1.275-.085 1.712-.256.448-.181.774-.421.976-.72.214-.298.32-.629.32-.992 0-.437-.128-.789-.384-1.056-.245-.266-.57-.474-.976-.624-.405-.16-.853-.298-1.344-.416-.49-.117-.981-.24-1.472-.368a6.681 6.681 0 01-1.36-.544 2.927 2.927 0 01-.992-.88c-.245-.373-.368-.858-.368-1.456 0-.554.144-1.061.432-1.52.299-.469.752-.842 1.36-1.12.608-.288 1.387-.432 2.336-.432.63 0 1.254.091 1.872.272a5.262 5.262 0 011.6.72l-.4.944a5.285 5.285 0 00-1.536-.704 5.753 5.753 0 00-1.552-.224c-.672 0-1.226.091-1.664.272-.437.182-.762.427-.976.736-.202.299-.304.64-.304 1.024 0 .438.123.79.368 1.056.256.267.587.475.992.624.416.15.87.283 1.36.4.491.118.976.246 1.456.384.491.139.939.32 1.344.544.416.214.747.502.992.864.256.363.384.838.384 1.424 0 .544-.149 1.051-.448 1.52-.298.459-.757.832-1.376 1.12-.608.278-1.392.416-2.352.416zm8.776-.096v-10.176h-3.936v-1.024h9.056v1.024h-3.936v10.176h-1.184zm4.657 0l5.12-11.2h1.168l5.12 11.2H461.2l-4.704-10.512h.48l-4.704 10.512h-1.232zm2.016-2.992l.352-.96h6.512l.352.96h-7.216zm11.245 2.992v-11.2h1.184v11.2h-1.184z" fill="#F3B245"/></svg>